<svg width="24" height="24" viewBox="0 0 24 24" fill="none" xmlns="http://www.w3.org/2000/svg">
<path d="M12.0059 0.181641C7.07099 0.181641 5.62772 0.186732 5.34718 0.210004C4.33445 0.294186 3.70427 0.453641 3.01772 0.795459C2.48863 1.05819 2.07136 1.36273 1.65954 1.78964C0.90954 2.56819 0.454994 3.526 0.290449 4.66455C0.210449 5.21728 0.187176 5.33 0.182449 8.15328C0.180631 9.09437 0.182449 10.3329 0.182449 11.9942C0.182449 16.9251 0.187903 18.3669 0.21154 18.6469C0.293358 19.6324 0.447903 20.2524 0.775176 20.9306C1.40063 22.2287 2.59518 23.2033 4.00245 23.5669C4.48972 23.6924 5.0279 23.7615 5.71881 23.7942C6.01154 23.8069 8.99518 23.816 11.9806 23.816C14.9661 23.816 17.9515 23.8124 18.237 23.7978C19.037 23.7602 19.5015 23.6978 20.0152 23.5651C21.4315 23.1996 22.6043 22.2396 23.2424 20.9233C23.5634 20.2615 23.7261 19.6178 23.7997 18.6838C23.8157 18.4802 23.8224 15.2335 23.8224 11.9911C23.8224 8.74819 23.8152 5.50746 23.7992 5.30382C23.7246 4.35473 23.5619 3.71655 23.2306 3.042C22.9588 2.48982 22.657 2.07746 22.2188 1.65582C21.4368 0.908913 20.4804 0.454368 19.3408 0.290004C18.7886 0.210186 18.6786 0.18655 15.8532 0.181641H12.0059Z" fill="url(#paint0_radial_1614_1925)"/>
<path d="M12.0059 0.181641C7.07099 0.181641 5.62772 0.186732 5.34718 0.210004C4.33445 0.294186 3.70427 0.453641 3.01772 0.795459C2.48863 1.05819 2.07136 1.36273 1.65954 1.78964C0.90954 2.56819 0.454994 3.526 0.290449 4.66455C0.210449 5.21728 0.187176 5.33 0.182449 8.15328C0.180631 9.09437 0.182449 10.3329 0.182449 11.9942C0.182449 16.9251 0.187903 18.3669 0.21154 18.6469C0.293358 19.6324 0.447903 20.2524 0.775176 20.9306C1.40063 22.2287 2.59518 23.2033 4.00245 23.5669C4.48972 23.6924 5.0279 23.7615 5.71881 23.7942C6.01154 23.8069 8.99518 23.816 11.9806 23.816C14.9661 23.816 17.9515 23.8124 18.237 23.7978C19.037 23.7602 19.5015 23.6978 20.0152 23.5651C21.4315 23.1996 22.6043 22.2396 23.2424 20.9233C23.5634 20.2615 23.7261 19.6178 23.7997 18.6838C23.8157 18.4802 23.8224 15.2335 23.8224 11.9911C23.8224 8.74819 23.8152 5.50746 23.7992 5.30382C23.7246 4.35473 23.5619 3.71655 23.2306 3.042C22.9588 2.48982 22.657 2.07746 22.2188 1.65582C21.4368 0.908913 20.4804 0.454368 19.3408 0.290004C18.7886 0.210186 18.6786 0.18655 15.8532 0.181641H12.0059Z" fill="url(#paint1_radial_1614_1925)"/>
<path d="M12.0005 3.27344C9.63028 3.27344 9.33282 3.2838 8.40192 3.32616C7.47282 3.36871 6.83864 3.5158 6.28373 3.73162C5.70973 3.95453 5.22282 4.25271 4.73773 4.73798C4.25228 5.22307 3.9541 5.70998 3.73046 6.2838C3.5141 6.83889 3.36682 7.47326 3.32501 8.40198C3.28337 9.33289 3.27246 9.63053 3.27246 12.0007C3.27246 14.3709 3.28301 14.6674 3.32519 15.5983C3.36792 16.5274 3.51501 17.1616 3.73064 17.7165C3.95373 18.2905 4.25192 18.7774 4.73719 19.2625C5.2221 19.748 5.70901 20.0469 6.28264 20.2698C6.83792 20.4856 7.47228 20.6327 8.40119 20.6753C9.3321 20.7176 9.62937 20.728 11.9994 20.728C14.3697 20.728 14.6663 20.7176 15.5972 20.6753C16.5263 20.6327 17.1612 20.4856 17.7165 20.2698C18.2903 20.0469 18.7765 19.748 19.2614 19.2625C19.7468 18.7774 20.045 18.2905 20.2686 17.7167C20.4832 17.1616 20.6305 16.5273 20.6741 15.5985C20.7159 14.6676 20.7268 14.3709 20.7268 12.0007C20.7268 9.63053 20.7159 9.33307 20.6741 8.40216C20.6305 7.47307 20.4832 6.83889 20.2686 6.28398C20.045 5.70998 19.7468 5.22307 19.2614 4.73798C18.7759 4.25253 18.2905 3.95435 17.7159 3.73162C17.1596 3.5158 16.525 3.36871 15.5959 3.32616C14.665 3.2838 14.3686 3.27344 11.9977 3.27344H12.0005ZM11.2176 4.84616C11.4499 4.8458 11.7092 4.84616 12.0005 4.84616C14.3306 4.84616 14.6068 4.85453 15.527 4.89635C16.3779 4.93526 16.8397 5.07744 17.1474 5.19689C17.5546 5.35507 17.845 5.54416 18.1503 5.84962C18.4557 6.15507 18.6448 6.44598 18.8034 6.85326C18.9228 7.16053 19.0652 7.62235 19.1039 8.47326C19.1457 9.39326 19.1548 9.66962 19.1548 11.9987C19.1548 14.3278 19.1457 14.6042 19.1039 15.5242C19.065 16.3751 18.9228 16.8369 18.8034 17.1442C18.6452 17.5514 18.4557 17.8414 18.1503 18.1467C17.8448 18.4522 17.5548 18.6413 17.1474 18.7994C16.8401 18.9194 16.3779 19.0613 15.527 19.1002C14.607 19.142 14.3306 19.1511 12.0005 19.1511C9.6701 19.1511 9.39392 19.142 8.47392 19.1002C7.62301 19.0609 7.16119 18.9187 6.85337 18.7993C6.4461 18.6411 6.15519 18.452 5.84973 18.1465C5.54428 17.8411 5.35519 17.5509 5.19664 17.1434C5.07719 16.8362 4.93482 16.3743 4.8961 15.5234C4.85428 14.6034 4.84592 14.3271 4.84592 11.9965C4.84592 9.66598 4.85428 9.39107 4.8961 8.47107C4.93501 7.62017 5.07719 7.15835 5.19664 6.85071C5.35482 6.44344 5.54428 6.15253 5.84973 5.84707C6.15519 5.54162 6.4461 5.35253 6.85337 5.19398C7.16101 5.07398 7.62301 4.93217 8.47392 4.89307C9.27901 4.85671 9.59101 4.8458 11.2176 4.84398V4.84616ZM16.659 6.29526C16.0808 6.29526 15.6117 6.7638 15.6117 7.34216C15.6117 7.92035 16.0808 8.38944 16.659 8.38944C17.2372 8.38944 17.7063 7.92035 17.7063 7.34216C17.7063 6.76398 17.2372 6.29489 16.659 6.29489V6.29526ZM12.0005 7.51889C9.52537 7.51889 7.51864 9.52562 7.51864 12.0007C7.51864 14.4758 9.52537 16.4816 12.0005 16.4816C14.4756 16.4816 16.4816 14.4758 16.4816 12.0007C16.4816 9.52562 14.4756 7.51889 12.0005 7.51889ZM12.0005 9.09162C13.607 9.09162 14.9096 10.394 14.9096 12.0007C14.9096 13.6073 13.607 14.9098 12.0005 14.9098C10.3937 14.9098 9.09137 13.6073 9.09137 12.0007C9.09137 10.394 10.3937 9.09162 12.0005 9.09162Z" fill="white"/>
<defs>
<radialGradient id="paint0_radial_1614_1925" cx="0" cy="0" r="1" gradientUnits="userSpaceOnUse" gradientTransform="translate(6.46126 25.6363) rotate(-90) scale(23.4234 21.7915)">
<stop stop-color="#FFDD55"/>
<stop offset="0.1" stop-color="#FFDD55"/>
<stop offset="0.5" stop-color="#FF543E"/>
<stop offset="1" stop-color="#C837AB"/>
</radialGradient>
<radialGradient id="paint1_radial_1614_1925" cx="0" cy="0" r="1" gradientUnits="userSpaceOnUse" gradientTransform="translate(-3.77832 1.88422) rotate(78.6776) scale(10.4705 43.1706)">
<stop stop-color="#3771C8"/>
<stop offset="0.128" stop-color="#3771C8"/>
<stop offset="1" stop-color="#6600FF" stop-opacity="0"/>
</radialGradient>
</defs>
</svg>
