<svg width="24" height="24" viewBox="0 0 24 24" fill="none" xmlns="http://www.w3.org/2000/svg">
<g clip-path="url(#clip0_1614_1906)">
<mask id="mask0_1614_1906" style="mask-type:luminance" maskUnits="userSpaceOnUse" x="0" y="0" width="24" height="24">
<path d="M18.9153 0H5.08475C2.27652 0 0 2.27652 0 5.08475V18.9153C0 21.7235 2.27652 24 5.08475 24H18.9153C21.7235 24 24 21.7235 24 18.9153V5.08475C24 2.27652 21.7235 0 18.9153 0Z" fill="white"/>
</mask>
<g mask="url(#mask0_1614_1906)">
<path d="M24 0H0V24H24V0Z" fill="#005BFF"/>
<mask id="mask1_1614_1906" style="mask-type:alpha" maskUnits="userSpaceOnUse" x="0" y="0" width="24" height="24">
<path fill-rule="evenodd" clip-rule="evenodd" d="M0 0H24V24H0V0Z" fill="white"/>
</mask>
<g mask="url(#mask1_1614_1906)">
<path fill-rule="evenodd" clip-rule="evenodd" d="M11.8198 12.0329L11.4664 10.6639L13.7986 9.09961L16.588 9.29161L16.9952 10.6296L29.7093 24.3069L9.82324 30.3331L11.8198 12.0329Z" fill="#F91155"/>
<path fill-rule="evenodd" clip-rule="evenodd" d="M2.55149 16.0435C1.64902 16.4166 0.640779 15.8145 0.501588 14.8195C0.406688 14.1412 0.779444 13.4732 1.39465 13.2189C2.29716 12.8458 3.30535 13.4479 3.44459 14.4428C3.53944 15.1212 3.16668 15.7892 2.55149 16.0435ZM1.50997 11.8072C-0.234232 12.0891 -1.25895 13.9256 -0.622278 15.6289C-0.151215 16.8895 1.14543 17.6636 2.43612 17.455C4.18039 17.1733 5.20507 15.3368 4.56845 13.6334C4.09733 12.3729 2.80067 11.5987 1.50997 11.8072Z" fill="white"/>
<path fill-rule="evenodd" clip-rule="evenodd" d="M5.40932 10.8161C5.01725 10.9211 4.8056 11.3662 4.99766 11.7574C5.1385 12.0443 5.47341 12.1762 5.77745 12.0947L7.54302 11.6216L5.78207 16.0399C5.7243 16.1849 5.85564 16.3357 6.00492 16.2958L10.3148 15.1409C10.6189 15.0594 10.8429 14.7777 10.8215 14.4588C10.7922 14.0241 10.3864 13.7445 9.99432 13.8496L7.8432 14.4259L9.60279 10.0109C9.66112 9.86452 9.52857 9.71232 9.37792 9.75269L5.40932 10.8161Z" fill="white"/>
<path fill-rule="evenodd" clip-rule="evenodd" d="M22.6196 6.17576C22.341 6.31759 22.2126 6.64937 22.2942 6.95396L22.8675 9.09323L18.684 7.25788C18.5381 7.19394 18.3844 7.32767 18.4258 7.48233L19.6092 11.8991C19.6908 12.2036 19.9679 12.4268 20.28 12.4103C20.7154 12.3874 20.9938 11.9755 20.8865 11.5751L20.3085 9.41764L24.4919 11.2529C24.6377 11.3169 24.7916 11.1832 24.75 11.0285L23.5624 6.59579C23.4551 6.19543 23.0079 5.97788 22.6196 6.17576Z" fill="white"/>
<path fill-rule="evenodd" clip-rule="evenodd" d="M13.6352 8.46693C11.54 9.02837 10.173 10.7212 10.5821 12.248C10.9912 13.7748 13.0214 14.5574 15.1167 13.996C17.2119 13.4345 18.579 11.7417 18.1698 10.2149C17.7607 8.68807 15.7305 7.90551 13.6352 8.46693ZM13.9809 9.75725C15.4285 9.36938 16.7187 9.85787 16.9051 10.5538C17.0916 11.2497 16.2186 12.3178 14.771 12.7056C13.3235 13.0936 12.0332 12.605 11.8468 11.9091C11.6603 11.2133 12.5334 10.1451 13.9809 9.75725Z" fill="white"/>
</g>
</g>
</g>
<defs>
<clipPath id="clip0_1614_1906">
<rect width="24" height="24" fill="white"/>
</clipPath>
</defs>
</svg>
