<svg width="24" height="24" viewBox="0 0 24 24" fill="none" xmlns="http://www.w3.org/2000/svg">
<g clip-path="url(#clip0_1614_1929)">
<path d="M0.000976562 11.52C0.000976562 6.088 0.000976562 3.376 1.68098 1.68C3.38498 0 6.09698 0 11.521 0H12.481C17.913 0 20.625 0 22.321 1.68C24.001 3.384 24.001 6.096 24.001 11.52V12.48C24.001 17.912 24.001 20.624 22.321 22.32C20.617 24 17.905 24 12.481 24H11.521C6.08898 24 3.37698 24 1.68098 22.32C0.000976562 20.616 0.000976562 17.904 0.000976562 12.48V11.52Z" fill="#005BFF"/>
<path d="M12.7688 17.2889C7.29683 17.2889 4.17683 13.5449 4.04883 7.30488H6.80083C6.88883 11.8809 8.90483 13.8169 10.5048 14.2169V7.30488H13.0888V11.2489C14.6648 11.0809 16.3288 9.28088 16.8888 7.29688H19.4648C19.2548 8.32389 18.8352 9.29655 18.2323 10.1541C17.6294 11.0116 16.8562 11.7356 15.9608 12.2809C16.96 12.7782 17.8423 13.4816 18.5498 14.3449C19.2572 15.2081 19.7735 16.2115 20.0648 17.2889H17.2248C16.6168 15.3929 15.0968 13.9209 13.0888 13.7209V17.2889H12.7768H12.7688Z" fill="white"/>
</g>
<defs>
<clipPath id="clip0_1614_1929">
<rect width="24" height="24" fill="white" transform="translate(0.000976562)"/>
</clipPath>
</defs>
</svg>
