<svg width="44" height="44" viewBox="0 0 44 44" fill="none" xmlns="http://www.w3.org/2000/svg">
<rect width="44" height="44" rx="22" fill="white" fill-opacity="0.1"/>
<g style="mix-blend-mode:luminosity" clip-path="url(#clip0_17881_1134)">
<path d="M15.2321 10C15.2321 10 10 10 10 15.2321V28.7679C10 28.7679 10 34 15.2321 34H28.7679C28.7679 34 34 34 34 28.7679V15.2321C34 15.2321 34 10 28.7679 10H15.2321Z" fill="#DCFF00"/>
<path fill-rule="evenodd" clip-rule="evenodd" d="M23.8912 18.2112L20.2418 16.945C20.7076 16.3119 21.2664 15.8281 21.8432 15.5301L24.5243 14.1524L28.1551 15.3814L25.5861 16.6842C24.9715 16.9822 24.375 17.5224 23.8912 18.2112ZM28.1551 19.3467L25.5861 20.6315C25.373 20.7309 25.1728 20.8559 24.9901 21.0039C25.0273 20.7802 25.0459 20.5758 25.0459 20.3707V20.2407C25.0459 19.5704 24.878 19.0302 24.5429 18.6579C24.6736 18.49 24.8037 18.3413 24.9344 18.2112C24.9344 18.2112 28.1551 19.3467 28.1551 19.3467ZM28.1371 20.8923L25.5669 22.1771C25.2509 22.3258 24.9529 22.4002 24.6915 22.3816C24.9901 22.0279 25.3253 21.7485 25.679 21.5812L27.5034 20.6687L28.1365 20.8923L28.1371 20.8923ZM25.0273 24.3181V24.188C25.0273 24.0387 25.0087 23.89 24.9901 23.7407L28.0807 24.8583L25.5483 26.1425C25.1946 26.3289 24.8408 26.3847 24.5429 26.3103C24.8564 25.6927 25.0222 25.0107 25.0273 24.3181ZM15.9221 27.9675L18.3982 26.7204C18.641 26.6083 18.8641 26.4404 19.0877 26.236L19.3857 26.3475L19.4414 26.3661L19.46 26.3481L22.2532 24.9512C22.4577 24.8583 22.6627 24.7276 22.8486 24.5789C22.8124 24.788 22.7937 24.9998 22.7928 25.212V25.3421C22.7928 25.9752 22.9607 26.5154 23.2772 26.8877C22.9415 27.3158 22.5506 27.6509 22.1597 27.8559L19.4978 29.1965L15.9227 27.9675L15.9221 27.9675ZM19.3857 30.0526L15.7549 28.8056V28.1533L19.3857 29.4195V30.0526ZM15.7549 24.8397V24.188L19.3857 25.4728V26.1053L15.7549 24.8397ZM16.5924 23.7222L19.4414 24.709L19.4972 24.691L22.2718 23.2941C22.5878 23.1454 22.8858 23.0705 23.1471 23.089C22.8486 23.4428 22.5134 23.7221 22.1597 23.89L19.46 25.2678L15.9036 24.0387L16.593 23.7222H16.5924ZM15.7549 23.2006V22.6424L19.3857 23.9086V24.4668L15.7549 23.2018L15.7549 23.2006ZM18.3988 21.2089C18.6596 21.0782 18.9204 20.9853 19.162 20.9481L22.6255 22.1586C22.4763 22.2143 22.309 22.2701 22.1597 22.3444L19.4786 23.685L15.9227 22.4379C15.9227 22.4379 18.3988 21.2089 18.3988 21.2089ZM15.7735 19.2538V18.695L19.4042 19.9421V20.52L15.7735 19.2538ZM22.8486 22.0093L19.2741 20.7622V20.7059L19.3857 20.7431L19.4228 20.7616L22.2526 19.3467C22.6256 19.1609 22.9793 19.1045 23.2958 19.1789C22.9601 19.8863 22.7928 20.5938 22.7928 21.2461V21.3762C22.7928 21.6184 22.8114 21.8228 22.8486 22.0093ZM24.1334 20.6687C24.1334 21.041 24.059 21.4505 23.8912 21.842C23.7611 21.6184 23.7053 21.3204 23.7053 20.9853V20.8738C23.7053 20.5014 23.7797 20.0914 23.9475 19.7005C24.0776 19.9241 24.1334 20.2221 24.1334 20.5572V20.6687ZM23.7053 24.9326V24.8211C23.7053 24.4482 23.7797 24.0387 23.9475 23.6478C24.0776 23.8714 24.1334 24.1694 24.1334 24.5045V24.6161C24.1334 24.9884 24.059 25.3979 23.8912 25.7887C23.7611 25.5657 23.7053 25.2672 23.7053 24.9326ZM18.3988 17.2616C18.9948 16.9636 19.5721 16.9078 20.0188 17.0937L20.0931 17.1315L22.9793 18.1369C22.6854 18.1787 22.4015 18.2731 22.1411 18.4157L19.4972 19.7376L15.9227 18.5086C15.9227 18.5086 18.3988 17.2616 18.3988 17.2616ZM28.453 16.2376V15.2507L24.5057 13.9102L21.7316 15.3436C21.1171 15.6602 20.5026 16.2004 20.0188 16.8707C19.5158 16.6848 18.9012 16.7585 18.2873 17.0751L15.5312 18.472V19.4211L19.0505 20.6501V20.7616C18.8083 20.7994 18.5475 20.8923 18.2873 21.0224L15.5312 22.4194V23.3684L16.2951 23.6292L15.5312 23.9644V24.9884L18.8455 26.1425C18.6776 26.2918 18.4918 26.4033 18.3059 26.4962L15.5312 27.8931V28.9357L19.3857 30.2763L19.4414 30.2949L19.4786 30.2763L22.2526 28.8794C22.8672 28.5634 23.4817 28.0232 23.9661 27.3529C24.4685 27.5388 25.083 27.4651 25.6976 27.1485L28.4344 25.7888V24.7647L28.3787 24.7468L24.9529 23.5177V23.4991C25.2055 23.4455 25.4495 23.3578 25.6784 23.2383L28.4344 21.8414V20.7802L28.3973 20.7622L27.7642 20.5386L28.4344 20.2029V19.2166H28.4159L25.083 18.0434C25.2689 17.8755 25.4554 17.7454 25.6604 17.6525C25.6604 17.6525 28.453 16.2376 28.453 16.2376Z" fill="black"/>
</g>
<defs>
<clipPath id="clip0_17881_1134">
<rect width="24" height="24" fill="white" transform="translate(10 10)"/>
</clipPath>
</defs>
</svg>
