<svg width="44" height="44" viewBox="0 0 44 44" fill="none" xmlns="http://www.w3.org/2000/svg">
<rect width="44" height="44" rx="22" fill="white" fill-opacity="0.1"/>
<g style="mix-blend-mode:luminosity" clip-path="url(#clip0_17881_1113)">
<mask id="mask0_17881_1113" style="mask-type:luminance" maskUnits="userSpaceOnUse" x="10" y="10" width="24" height="24">
<path d="M28.9153 10H15.0847C12.2765 10 10 12.2765 10 15.0847V28.9153C10 31.7235 12.2765 34 15.0847 34H28.9153C31.7235 34 34 31.7235 34 28.9153V15.0847C34 12.2765 31.7235 10 28.9153 10Z" fill="white"/>
</mask>
<g mask="url(#mask0_17881_1113)">
<path d="M34 10H10V34H34V10Z" fill="#005BFF"/>
<mask id="mask1_17881_1113" style="mask-type:alpha" maskUnits="userSpaceOnUse" x="10" y="10" width="24" height="24">
<path fill-rule="evenodd" clip-rule="evenodd" d="M10 10H34V34H10V10Z" fill="white"/>
</mask>
<g mask="url(#mask1_17881_1113)">
<path fill-rule="evenodd" clip-rule="evenodd" d="M21.8208 22.0329L21.4674 20.6639L23.7996 19.0996L26.589 19.2916L26.9962 20.6296L39.7103 34.3069L19.8242 40.3331L21.8208 22.0329Z" fill="#F91155"/>
<path fill-rule="evenodd" clip-rule="evenodd" d="M12.5515 26.0445C11.649 26.4175 10.6408 25.8155 10.5016 24.8205C10.4067 24.1422 10.7794 23.4742 11.3947 23.2199C12.2972 22.8468 13.3054 23.4489 13.4446 24.4438C13.5394 25.1221 13.1667 25.7902 12.5515 26.0445ZM11.51 21.8082C9.76577 22.0901 8.74105 23.9266 9.37772 25.6299C9.84879 26.8905 11.1454 27.6646 12.4361 27.456C14.1804 27.1743 15.2051 25.3378 14.5685 23.6344C14.0973 22.3739 12.8007 21.5997 11.51 21.8082Z" fill="white"/>
<path fill-rule="evenodd" clip-rule="evenodd" d="M15.4093 20.8161C15.0173 20.9211 14.8056 21.3662 14.9977 21.7574C15.1385 22.0443 15.4734 22.1762 15.7775 22.0947L17.543 21.6216L15.7821 26.0399C15.7243 26.1849 15.8556 26.3357 16.0049 26.2958L20.3148 25.1409C20.6189 25.0594 20.8429 24.7777 20.8215 24.4588C20.7922 24.0241 20.3864 23.7445 19.9943 23.8496L17.8432 24.4259L19.6028 20.0109C19.6611 19.8645 19.5286 19.7123 19.3779 19.7527L15.4093 20.8161Z" fill="white"/>
<path fill-rule="evenodd" clip-rule="evenodd" d="M32.6186 16.1767C32.3401 16.3186 32.2117 16.6503 32.2933 16.9549L32.8665 19.0942L28.6831 17.2589C28.5371 17.1949 28.3834 17.3286 28.4248 17.4833L29.6083 21.9C29.6899 22.2045 29.9669 22.4277 30.2791 22.4113C30.7144 22.3884 30.9928 21.9765 30.8855 21.5761L30.3075 19.4186L34.4909 21.2539C34.6367 21.3179 34.7906 21.1842 34.7491 21.0295L33.5614 16.5968C33.4541 16.1964 33.0069 15.9789 32.6186 16.1767Z" fill="white"/>
<path fill-rule="evenodd" clip-rule="evenodd" d="M23.6372 18.4679C21.5419 19.0293 20.175 20.7222 20.5841 22.249C20.9932 23.7758 23.0234 24.5584 25.1187 23.9969C27.2139 23.4355 28.5809 21.7426 28.1717 20.2159C27.7627 18.689 25.7325 17.9065 23.6372 18.4679ZM23.9829 19.7582C25.4305 19.3704 26.7207 19.8588 26.9071 20.5547C27.0935 21.2506 26.2205 22.3187 24.773 22.7066C23.3254 23.0945 22.0352 22.606 21.8487 21.9101C21.6623 21.2142 22.5353 20.1461 23.9829 19.7582Z" fill="white"/>
</g>
</g>
</g>
<defs>
<clipPath id="clip0_17881_1113">
<rect width="24" height="24" fill="white" transform="translate(10 10)"/>
</clipPath>
</defs>
</svg>
