<svg width="44" height="44" viewBox="0 0 44 44" fill="none" xmlns="http://www.w3.org/2000/svg">
<rect width="44" height="44" rx="22" fill="white" fill-opacity="0.1"/>
<g style="mix-blend-mode:luminosity" clip-path="url(#clip0_17881_1108)">
<path d="M10 21.2673C10 17.323 10 15.3512 10.7672 13.8452C11.4429 12.5203 12.5203 11.4429 13.8452 10.7672C15.3512 10 17.323 10 21.2673 10H22.7327C26.677 10 28.6488 10 30.1548 10.7672C31.4797 11.4429 32.5571 12.5203 33.2327 13.8452C34 15.3512 34 17.323 34 21.2673V22.7327C34 26.677 34 28.6488 33.2327 30.1548C32.5571 31.4797 31.4797 32.5571 30.1548 33.2327C28.6488 34 26.677 34 22.7327 34H21.2673C17.323 34 15.3512 34 13.8452 33.2327C12.5203 32.5571 11.4429 31.4797 10.7672 30.1548C10 28.6488 10 26.677 10 22.7327V21.2673Z" fill="url(#paint0_linear_17881_1108)"/>
<path d="M27.4225 18.904C26.7132 18.9027 26.02 19.1155 25.4335 19.5145V16H23.8442V22.4822C23.8442 24.4547 25.4493 26.0402 27.4143 26.0402C27.8848 26.0416 28.3511 25.9501 28.7862 25.7709C29.2213 25.5917 29.6168 25.3284 29.9499 24.996C30.2831 24.6636 30.5473 24.2688 30.7275 23.8341C30.9077 23.3993 31.0003 22.9333 31 22.4627C31 20.461 29.4115 18.904 27.4225 18.904ZM20.2188 22.9375L18.7652 19.1538H17.6515L16.189 22.9375L14.7273 19.1538H13L15.5552 25.8062H16.669L18.202 21.844L19.7432 25.8062H20.857L23.4048 19.1538H21.6812L20.2188 22.9375ZM27.4143 24.451C27.1538 24.4521 26.8958 24.4016 26.655 24.3024C26.4142 24.2033 26.1954 24.0574 26.0112 23.8733C25.8271 23.6891 25.6812 23.4703 25.5821 23.2295C25.4829 22.9887 25.4324 22.7307 25.4335 22.4702C25.4335 21.349 26.2848 20.497 27.4225 20.497C28.5595 20.497 29.4115 21.3842 29.4115 22.4695C29.4115 23.5555 28.504 24.451 27.4105 24.451H27.4143Z" fill="white"/>
</g>
<defs>
<linearGradient id="paint0_linear_17881_1108" x1="10" y1="34" x2="34" y2="10" gradientUnits="userSpaceOnUse">
<stop stop-color="#7906F8"/>
<stop offset="1" stop-color="#FE48D7"/>
</linearGradient>
<clipPath id="clip0_17881_1108">
<rect width="24" height="24" fill="white" transform="translate(10 10)"/>
</clipPath>
</defs>
</svg>
