<svg width="319" height="33" viewBox="0 0 319 33" fill="none" xmlns="http://www.w3.org/2000/svg">
<path d="M0.620143 0.499998H3.95014V29.12H21.5901V32H0.620143V0.499998ZM56.3692 29.12V32H34.0942V0.499998H55.6942V3.38H37.4242V14.585H53.7142V17.42H37.4242V29.12H56.3692ZM122.639 0.499998V32H119.444V6.8L107.069 27.995H105.494L93.1191 6.935V32H89.9241V0.499998H92.6691L106.349 23.855L119.894 0.499998H122.639ZM153.648 32.27C150.528 32.27 147.693 31.58 145.143 30.2C142.623 28.79 140.643 26.87 139.203 24.44C137.793 22.01 137.088 19.28 137.088 16.25C137.088 13.22 137.793 10.49 139.203 8.06C140.643 5.63 142.623 3.725 145.143 2.345C147.693 0.934999 150.528 0.229999 153.648 0.229999C156.768 0.229999 159.573 0.919999 162.063 2.3C164.583 3.68 166.563 5.6 168.003 8.06C169.443 10.49 170.163 13.22 170.163 16.25C170.163 19.28 169.443 22.025 168.003 24.485C166.563 26.915 164.583 28.82 162.063 30.2C159.573 31.58 156.768 32.27 153.648 32.27ZM153.648 29.3C156.138 29.3 158.388 28.745 160.398 27.635C162.408 26.495 163.983 24.935 165.123 22.955C166.263 20.945 166.833 18.71 166.833 16.25C166.833 13.79 166.263 11.57 165.123 9.59C163.983 7.58 162.408 6.02 160.398 4.91C158.388 3.77 156.138 3.2 153.648 3.2C151.158 3.2 148.893 3.77 146.853 4.91C144.843 6.02 143.253 7.58 142.083 9.59C140.943 11.57 140.373 13.79 140.373 16.25C140.373 18.71 140.943 20.945 142.083 22.955C143.253 24.935 144.843 26.495 146.853 27.635C148.893 28.745 151.158 29.3 153.648 29.3ZM197.292 32.27C193.212 32.27 190.032 31.1 187.752 28.76C185.472 26.42 184.332 23.015 184.332 18.545V0.499998H187.662V18.41C187.662 22.07 188.487 24.8 190.137 26.6C191.787 28.4 194.172 29.3 197.292 29.3C200.442 29.3 202.842 28.4 204.492 26.6C206.142 24.8 206.967 22.07 206.967 18.41V0.499998H210.207V18.545C210.207 23.015 209.067 26.42 206.787 28.76C204.537 31.1 201.372 32.27 197.292 32.27ZM235.901 32.27C233.561 32.27 231.311 31.895 229.151 31.145C227.021 30.395 225.371 29.405 224.201 28.175L225.506 25.61C226.646 26.75 228.161 27.68 230.051 28.4C231.941 29.09 233.891 29.435 235.901 29.435C238.721 29.435 240.836 28.925 242.246 27.905C243.656 26.855 244.361 25.505 244.361 23.855C244.361 22.595 243.971 21.59 243.191 20.84C242.441 20.09 241.511 19.52 240.401 19.13C239.291 18.71 237.746 18.26 235.766 17.78C233.396 17.18 231.506 16.61 230.096 16.07C228.686 15.5 227.471 14.645 226.451 13.505C225.461 12.365 224.966 10.82 224.966 8.87C224.966 7.28 225.386 5.84 226.226 4.55C227.066 3.23 228.356 2.18 230.096 1.4C231.836 0.619999 233.996 0.229999 236.576 0.229999C238.376 0.229999 240.131 0.484999 241.841 0.995C243.581 1.475 245.081 2.15 246.341 3.02L245.216 5.675C243.896 4.805 242.486 4.16 240.986 3.74C239.486 3.29 238.016 3.065 236.576 3.065C233.816 3.065 231.731 3.605 230.321 4.685C228.941 5.735 228.251 7.1 228.251 8.78C228.251 10.04 228.626 11.06 229.376 11.84C230.156 12.59 231.116 13.175 232.256 13.595C233.426 13.985 234.986 14.42 236.936 14.9C239.246 15.47 241.106 16.04 242.516 16.61C243.956 17.15 245.171 17.99 246.161 19.13C247.151 20.24 247.646 21.755 247.646 23.675C247.646 25.265 247.211 26.72 246.341 28.04C245.501 29.33 244.196 30.365 242.426 31.145C240.656 31.895 238.481 32.27 235.901 32.27ZM270.562 32.27C268.222 32.27 265.972 31.895 263.812 31.145C261.682 30.395 260.032 29.405 258.862 28.175L260.167 25.61C261.307 26.75 262.822 27.68 264.712 28.4C266.602 29.09 268.552 29.435 270.562 29.435C273.382 29.435 275.497 28.925 276.907 27.905C278.317 26.855 279.022 25.505 279.022 23.855C279.022 22.595 278.632 21.59 277.852 20.84C277.102 20.09 276.172 19.52 275.062 19.13C273.952 18.71 272.407 18.26 270.427 17.78C268.057 17.18 266.167 16.61 264.757 16.07C263.347 15.5 262.132 14.645 261.112 13.505C260.122 12.365 259.627 10.82 259.627 8.87C259.627 7.28 260.047 5.84 260.887 4.55C261.727 3.23 263.017 2.18 264.757 1.4C266.497 0.619999 268.657 0.229999 271.237 0.229999C273.037 0.229999 274.792 0.484999 276.502 0.995C278.242 1.475 279.742 2.15 281.002 3.02L279.877 5.675C278.557 4.805 277.147 4.16 275.647 3.74C274.147 3.29 272.677 3.065 271.237 3.065C268.477 3.065 266.392 3.605 264.982 4.685C263.602 5.735 262.912 7.1 262.912 8.78C262.912 10.04 263.287 11.06 264.037 11.84C264.817 12.59 265.777 13.175 266.917 13.595C268.087 13.985 269.647 14.42 271.597 14.9C273.907 15.47 275.767 16.04 277.177 16.61C278.617 17.15 279.832 17.99 280.822 19.13C281.812 20.24 282.307 21.755 282.307 23.675C282.307 25.265 281.872 26.72 281.002 28.04C280.162 29.33 278.857 30.365 277.087 31.145C275.317 31.895 273.142 32.27 270.562 32.27ZM318.812 29.12V32H296.537V0.499998H318.137V3.38H299.867V14.585H316.157V17.42H299.867V29.12H318.812Z" fill="white"/>
</svg>
