<svg width="20" height="20" viewBox="0 0 20 20" fill="none" xmlns="http://www.w3.org/2000/svg">
<path d="M10.0002 2.5C9.54023 2.5 9.1669 2.87333 9.1669 3.33333V14.2253L5.9475 11.0059C5.62167 10.68 5.09411 10.68 4.76911 11.0059L4.6975 11.0775C4.37167 11.4033 4.37167 11.9309 4.6975 12.2559L9.41104 16.9694C9.73688 17.2952 10.2644 17.2952 10.5894 16.9694L15.303 12.2559C15.6288 11.93 15.6288 11.4025 15.303 11.0775L15.2314 11.0059C14.9055 10.68 14.378 10.68 14.053 11.0059L10.8336 14.2253V3.33333C10.8336 2.87333 10.4602 2.5 10.0002 2.5Z" fill="white"/>
</svg>
