<svg width="20" height="20" viewBox="0 0 20 20" fill="none" xmlns="http://www.w3.org/2000/svg">
<path d="M7.08301 11.875C7.08301 13.475 8.39967 14.7917 9.99967 14.7917C11.5997 14.7917 12.9163 13.475 12.9163 11.875" stroke="#2C2E35" stroke-miterlimit="10" stroke-linecap="round" stroke-linejoin="round"/>
<path d="M7.34186 1.66602L4.3252 4.69102" stroke="#2C2E35" stroke-miterlimit="10" stroke-linecap="round" stroke-linejoin="round"/>
<path d="M12.6582 1.66602L15.6749 4.69102" stroke="#2C2E35" stroke-miterlimit="10" stroke-linecap="round" stroke-linejoin="round"/>
<path d="M1.66699 6.54167C1.66699 5 2.49199 4.875 3.51699 4.875H16.4837C17.5087 4.875 18.3337 5 18.3337 6.54167C18.3337 8.33333 17.5087 8.20833 16.4837 8.20833H3.51699C2.49199 8.20833 1.66699 8.33333 1.66699 6.54167Z" stroke="#2C2E35"/>
<path d="M2.91699 8.33398L4.09199 15.534C4.35866 17.1507 5.00033 18.334 7.38366 18.334H12.4087C15.0003 18.334 15.3837 17.2007 15.6837 15.634L17.0837 8.33398" stroke="#2C2E35" stroke-linecap="round"/>
</svg>
