<svg width="196" height="20" viewBox="0 0 196 20" fill="none" xmlns="http://www.w3.org/2000/svg">
<path d="M0.878906 0.302308H2.91448V17.6478H13.6975V19.3932H0.878906V0.302308ZM34.9575 17.6478V19.3932H21.3411V0.302308H34.5449V2.04776H23.3767V8.83867H33.3345V10.5569H23.3767V17.6478H34.9575ZM75.4672 0.302308V19.3932H73.5142V4.12049L65.9495 16.9659H64.9868L57.4222 4.20231V19.3932H55.4691V0.302308H57.1471L65.5094 14.4569L73.7893 0.302308H75.4672ZM94.4226 19.5569C92.5154 19.5569 90.7824 19.1387 89.2236 18.3023C87.6832 17.4478 86.4728 16.2841 85.5926 14.8114C84.7306 13.3387 84.2997 11.6841 84.2997 9.84776C84.2997 8.0114 84.7306 6.35685 85.5926 4.88413C86.4728 3.4114 87.6832 2.25685 89.2236 1.42049C90.7824 0.565944 92.5154 0.138672 94.4226 0.138672C96.3298 0.138672 98.0444 0.556854 99.5665 1.39322C101.107 2.22958 102.317 3.39322 103.198 4.88413C104.078 6.35685 104.518 8.0114 104.518 9.84776C104.518 11.6841 104.078 13.3478 103.198 14.8387C102.317 16.3114 101.107 17.4659 99.5665 18.3023C98.0444 19.1387 96.3298 19.5569 94.4226 19.5569ZM94.4226 17.7569C95.9447 17.7569 97.3201 17.4205 98.5487 16.7478C99.7774 16.0569 100.74 15.1114 101.437 13.9114C102.134 12.6932 102.482 11.3387 102.482 9.84776C102.482 8.35685 102.134 7.0114 101.437 5.8114C100.74 4.59322 99.7774 3.64776 98.5487 2.97504C97.3201 2.28413 95.9447 1.93867 94.4226 1.93867C92.9005 1.93867 91.5159 2.28413 90.2689 2.97504C89.0402 3.64776 88.0683 4.59322 87.3531 5.8114C86.6562 7.0114 86.3078 8.35685 86.3078 9.84776C86.3078 11.3387 86.6562 12.6932 87.3531 13.9114C88.0683 15.1114 89.0402 16.0569 90.2689 16.7478C91.5159 17.4205 92.9005 17.7569 94.4226 17.7569ZM121.102 19.5569C118.607 19.5569 116.664 18.8478 115.27 17.4296C113.876 16.0114 113.179 13.9478 113.179 11.2387V0.302308H115.215V11.1569C115.215 13.375 115.719 15.0296 116.728 16.1205C117.736 17.2114 119.194 17.7569 121.102 17.7569C123.027 17.7569 124.494 17.2114 125.503 16.1205C126.511 15.0296 127.016 13.375 127.016 11.1569V0.302308H128.996V11.2387C128.996 13.9478 128.299 16.0114 126.906 17.4296C125.53 18.8478 123.596 19.5569 121.102 19.5569ZM144.703 19.5569C143.272 19.5569 141.897 19.3296 140.576 18.875C139.274 18.4205 138.266 17.8205 137.551 17.075L138.348 15.5205C139.045 16.2114 139.971 16.775 141.127 17.2114C142.282 17.6296 143.474 17.8387 144.703 17.8387C146.426 17.8387 147.719 17.5296 148.581 16.9114C149.443 16.275 149.874 15.4569 149.874 14.4569C149.874 13.6932 149.636 13.0841 149.159 12.6296C148.7 12.175 148.132 11.8296 147.453 11.5932C146.775 11.3387 145.83 11.0659 144.62 10.775C143.171 10.4114 142.016 10.0659 141.154 9.73867C140.292 9.39322 139.549 8.87504 138.926 8.18413C138.321 7.49322 138.018 6.55685 138.018 5.37504C138.018 4.4114 138.275 3.53867 138.788 2.75685C139.302 1.95685 140.09 1.32049 141.154 0.847763C142.218 0.375036 143.538 0.138672 145.115 0.138672C146.216 0.138672 147.288 0.293217 148.334 0.602309C149.397 0.893218 150.314 1.30231 151.084 1.82958L150.397 3.43867C149.59 2.9114 148.728 2.52049 147.811 2.26595C146.894 1.99322 145.995 1.85685 145.115 1.85685C143.428 1.85685 142.154 2.18413 141.292 2.83867C140.448 3.47504 140.026 4.30231 140.026 5.32049C140.026 6.08413 140.256 6.70231 140.714 7.17504C141.191 7.62958 141.778 7.98413 142.474 8.23867C143.19 8.47504 144.143 8.73867 145.335 9.02958C146.747 9.37504 147.884 9.72049 148.746 10.0659C149.627 10.3932 150.369 10.9023 150.974 11.5932C151.58 12.2659 151.882 13.1841 151.882 14.3478C151.882 15.3114 151.616 16.1932 151.084 16.9932C150.571 17.775 149.773 18.4023 148.691 18.875C147.609 19.3296 146.28 19.5569 144.703 19.5569ZM165.89 19.5569C164.46 19.5569 163.085 19.3296 161.764 18.875C160.462 18.4205 159.454 17.8205 158.738 17.075L159.536 15.5205C160.233 16.2114 161.159 16.775 162.314 17.2114C163.47 17.6296 164.662 17.8387 165.89 17.8387C167.614 17.8387 168.907 17.5296 169.769 16.9114C170.631 16.275 171.062 15.4569 171.062 14.4569C171.062 13.6932 170.823 13.0841 170.347 12.6296C169.888 12.175 169.32 11.8296 168.641 11.5932C167.963 11.3387 167.018 11.0659 165.808 10.775C164.359 10.4114 163.204 10.0659 162.342 9.73867C161.48 9.39322 160.737 8.87504 160.114 8.18413C159.509 7.49322 159.206 6.55685 159.206 5.37504C159.206 4.4114 159.463 3.53867 159.976 2.75685C160.49 1.95685 161.278 1.32049 162.342 0.847763C163.405 0.375036 164.726 0.138672 166.303 0.138672C167.403 0.138672 168.476 0.293217 169.521 0.602309C170.585 0.893218 171.502 1.30231 172.272 1.82958L171.585 3.43867C170.778 2.9114 169.916 2.52049 168.999 2.26595C168.082 1.99322 167.183 1.85685 166.303 1.85685C164.616 1.85685 163.341 2.18413 162.479 2.83867C161.636 3.47504 161.214 4.30231 161.214 5.32049C161.214 6.08413 161.443 6.70231 161.902 7.17504C162.379 7.62958 162.965 7.98413 163.662 8.23867C164.377 8.47504 165.331 8.73867 166.523 9.02958C167.935 9.37504 169.072 9.72049 169.934 10.0659C170.814 10.3932 171.557 10.9023 172.162 11.5932C172.767 12.2659 173.07 13.1841 173.07 14.3478C173.07 15.3114 172.804 16.1932 172.272 16.9932C171.759 17.775 170.961 18.4023 169.879 18.875C168.797 19.3296 167.467 19.5569 165.89 19.5569ZM195.385 17.6478V19.3932H181.769V0.302308H194.972V2.04776H183.804V8.83867H193.762V10.5569H183.804V17.6478H195.385Z" fill="#2C2E35"/>
</svg>
