<svg width="24" height="32" viewBox="0 0 24 32" fill="none" xmlns="http://www.w3.org/2000/svg">
<path opacity="0.64" d="M6.49552 5.2915C4.61015 5.20801 2.79602 5.04589 1.07778 4.785C1.05206 4.94895 1.02708 5.11373 1.00284 5.27935M6.49552 5.2915L1.46683 18.5144C1.66171 18.5173 1.83889 18.5941 2.00424 18.7299C2.3202 18.9868 2.6834 19.1256 3.07613 19.1256C4.29861 19.1256 5.28781 17.7318 5.28781 16.0103C5.28781 14.2888 4.29565 12.8951 3.07613 12.8951C2.6834 12.8951 2.3202 13.0339 2.00424 13.2908C1.83889 13.4266 1.66171 13.5034 1.46683 13.5063C0.684322 13.5211 0.0287903 12.3547 0.00221464 10.899M6.49552 5.2915C6.59592 5.29445 6.6727 5.29445 6.77309 5.2915M6.49552 5.2915L0.505898 26.8175C0.669642 26.7905 0.834247 26.7643 0.999697 26.7389M1.00284 5.27935C0.837362 5.25423 0.672725 5.22819 0.508951 5.20123C0.257618 6.91741 0.0859568 8.7205 0.00516748 10.5948M1.00284 5.27935C0.754656 6.97544 0.584903 8.75844 0.504854 10.6129M1.00284 5.27935C2.74201 5.54342 4.57417 5.7069 6.4734 5.79101L6.4734 5.79107L6.48082 5.79129C6.5901 5.7945 6.67616 5.79453 6.78505 5.79137M0.00516748 10.5948C0.00221464 10.6952 0.00221464 10.7956 0.00221464 10.899M0.00516748 10.5948L0.504704 10.6163C0.504754 10.6152 0.504804 10.614 0.504854 10.6129M0.00516748 10.5948L0.504951 10.6095C0.504919 10.6106 0.504886 10.6117 0.504854 10.6129M0.00221464 10.899H0.502215C0.502215 10.8974 0.502215 10.8958 0.502215 10.8943M0.00221464 10.899L0.502131 10.8898C0.502158 10.8913 0.502186 10.8928 0.502215 10.8943M0.502215 10.8943C0.514912 11.5543 0.670384 12.1237 0.886963 12.5092C1.11534 12.9157 1.33842 13.0087 1.45739 13.0064L1.45925 13.0064C1.51632 13.0055 1.58775 12.9858 1.68688 12.9044L1.68881 12.9028C2.0854 12.5804 2.55799 12.3951 3.07613 12.3951C3.89065 12.3951 4.58054 12.8612 5.04688 13.5175C5.51411 14.1751 5.78781 15.0579 5.78781 16.0103C5.78781 16.9625 5.51503 17.8452 5.04811 18.503C4.58192 19.1597 3.89192 19.6256 3.07613 19.6256C2.558 19.6256 2.0854 19.4403 1.68881 19.1179L1.68687 19.1163C1.58776 19.0349 1.51632 19.0152 1.45925 19.0143L1.45739 19.0143C1.33842 19.012 1.11534 19.105 0.886963 19.5115C0.669898 19.8979 0.514214 20.469 0.502131 21.1308L0.50203 21.1364H0.501998C0.49937 21.2258 0.499334 21.2922 0.501892 21.3809M0.502215 10.8943C0.502216 10.7928 0.50229 10.7022 0.504854 10.6129M0.501892 21.3809C0.584788 23.2504 0.74292 25.0441 0.999697 26.7389M0.501892 21.3809C0.501927 21.3821 0.501963 21.3834 0.501998 21.3846L0.00221464 21.3993L0.501725 21.3772C0.501781 21.3784 0.501836 21.3797 0.501892 21.3809ZM6.78505 5.79137C7.57781 5.77649 8.31675 5.5912 8.8729 5.2785C9.40901 4.97707 9.89154 4.48105 9.87742 3.81739M6.78505 5.79137C6.78411 5.79138 6.78316 5.7914 6.78222 5.79142L6.77309 5.2915M6.78505 5.79137C6.78596 5.79134 6.78688 5.79131 6.78779 5.79129L6.77309 5.2915M9.87742 3.81739C9.8719 3.48603 9.7386 3.20414 9.5492 2.97319M9.87742 3.81739C9.87743 3.81803 9.87744 3.81867 9.87745 3.81932L9.3775 3.82689M9.87742 3.81739C9.8774 3.81679 9.87739 3.81618 9.87738 3.81557L9.3775 3.82689M9.5492 2.97319C9.35865 2.73849 9.26626 2.48504 9.26626 2.21464C9.26626 1.80776 9.49741 1.39111 9.96811 1.05635C10.4377 0.72238 11.1125 0.5 11.8815 0.5C12.6506 0.5 13.3253 0.72238 13.7949 1.05635C14.2656 1.39111 14.4968 1.80776 14.4968 2.21464C14.4968 2.48287 14.4039 2.73949 14.2131 2.97404L14.212 2.97546C14.0263 3.20559 13.8909 3.48402 13.8856 3.81839C13.8736 4.48145 14.3562 4.97707 14.8929 5.27858C15.4499 5.59156 16.1899 5.77693 16.9838 5.79142L16.9838 5.7915H16.9929H16.9963C17.0974 5.7915 17.204 5.7915 17.3117 5.78833L17.3117 5.78838L17.3186 5.78808C19.2107 5.70653 21.0315 5.53069 22.7627 5.27857M9.5492 2.97319C9.54943 2.97347 9.54966 2.97376 9.54989 2.97404L9.16195 3.28947M9.5492 2.97319C9.5489 2.97283 9.54861 2.97246 9.54831 2.9721L9.16195 3.28947M22.7627 5.27857C23.0111 6.9733 23.181 8.75733 23.2611 10.6129M22.7627 5.27857C22.9283 5.25445 23.0932 5.22963 23.2571 5.20413C23.5084 6.91788 23.68 8.72074 23.7608 10.5948M22.7627 5.27857C22.7386 5.114 22.7137 4.95028 22.6881 4.78741L23.1821 4.70979M23.2611 10.6129C23.2641 10.7139 23.2664 10.7991 23.264 10.8847L23.264 10.8847L23.2639 10.8898C23.2518 11.5517 23.0961 12.1228 22.879 12.5092C22.6523 12.9127 22.4309 13.0073 22.3112 13.0064M23.2611 10.6129C23.2611 10.6118 23.2611 10.6107 23.261 10.6095L23.7608 10.5948M23.2611 10.6129C23.2612 10.6141 23.2612 10.6152 23.2613 10.6163L23.7608 10.5948M22.3112 13.0064C22.2451 13.0038 22.1722 12.9808 22.0791 12.9044M22.3112 13.0064C22.3123 13.0065 22.3133 13.0065 22.3143 13.0066L22.2992 13.5063M22.3112 13.0064C22.3104 13.0064 22.3095 13.0064 22.3086 13.0064L22.2992 13.5063M22.0791 12.9044C21.6792 12.5756 21.2053 12.3951 20.6869 12.3951C19.8711 12.3951 19.1811 12.861 18.7149 13.5177C18.248 14.1754 17.9752 15.0582 17.9752 16.0103C17.9752 16.9628 18.2489 17.8456 18.7162 18.5031C19.1825 19.1595 19.8724 19.6256 20.6869 19.6256C21.2053 19.6256 21.6771 19.4402 22.0754 19.1193L22.0754 19.1193L22.0791 19.1163C22.1782 19.0349 22.2497 19.0152 22.3067 19.0143L22.3086 19.0143C22.4255 19.012 22.6479 19.1041 22.8768 19.5115C23.0935 19.8972 23.2497 20.4669 23.2638 21.1269M22.0791 12.9044C22.0792 12.9045 22.0793 12.9045 22.0793 12.9046L21.7617 13.2908M22.0791 12.9044L21.7617 13.2908M23.2638 21.1269V21.1271V21.1277V21.1283V21.1289V21.1295V21.1301V21.1307V21.1313V21.1319V21.1325V21.1331V21.1337V21.1343V21.1349V21.1355V21.1361V21.1367V21.1373V21.1378V21.1384V21.139V21.1396V21.1402V21.1408V21.1414V21.142V21.1426V21.1431V21.1437V21.1443V21.1449V21.1455V21.1461V21.1466V21.1472V21.1478V21.1484V21.149V21.1495V21.1501V21.1507V21.1513V21.1519V21.1524V21.153V21.1536V21.1542V21.1547V21.1553V21.1559V21.1565V21.157V21.1576V21.1582V21.1587V21.1593V21.1599V21.1605V21.161V21.1616V21.1622V21.1627V21.1633V21.1639V21.1644V21.165V21.1656V21.1661V21.1667V21.1673V21.1678V21.1684V21.169V21.1695V21.1701V21.1706V21.1712V21.1718V21.1723V21.1729V21.1734V21.174V21.1746V21.1751V21.1757V21.1762V21.1768V21.1774V21.1779V21.1785V21.179V21.1796V21.1801V21.1807V21.1812V21.1818V21.1824V21.1829V21.1835V21.184V21.1846V21.1851V21.1857V21.1862V21.1868V21.1873V21.1879V21.1884V21.189V21.1895V21.1901V21.1906V21.1912V21.1917V21.1923V21.1928V21.1933V21.1939V21.1944V21.195V21.1955V21.1961V21.1966V21.1972V21.1977V21.1982V21.1988V21.1993V21.1999V21.2004V21.201V21.2015V21.202V21.2026V21.2031V21.2037V21.2042V21.2047V21.2053V21.2058V21.2064V21.2069V21.2074V21.208V21.2085V21.209V21.2096V21.2101V21.2107V21.2112V21.2117V21.2123V21.2128V21.2133V21.2139V21.2144V21.2149V21.2155V21.216V21.2165V21.2171V21.2176V21.2181V21.2187V21.2192V21.2197V21.2203V21.2208V21.2213V21.2219V21.2224V21.2229V21.2234V21.224V21.2245V21.225V21.2256V21.2261V21.2266V21.2271V21.2277V21.2282V21.2287V21.2293V21.2298V21.2303V21.2308V21.2314V21.2319V21.2324V21.233V21.2335V21.234V21.2345V21.2351V21.2356V21.2361V21.2366V21.2372V21.2377V21.2382V21.2387V21.2393V21.2398V21.2403V21.2408V21.2413V21.2419V21.2424V21.2429V21.2434V21.244V21.2445V21.245V21.2455V21.2461V21.2466V21.2471V21.2476V21.2481V21.2487V21.2492V21.2497V21.2502V21.2508V21.2513V21.2518V21.2523V21.2528V21.2534V21.2539V21.2544V21.2549V21.2554V21.256V21.2565V21.257V21.2575V21.258V21.2586V21.2591V21.2596V21.2601V21.2606V21.2612V21.2617V21.2622V21.2627V21.2632V21.2638V21.2643V21.2648V21.2653V21.2658V21.2663V21.2669V21.2674V21.2679V21.2684V21.2689V21.2695V21.27V21.2705V21.271V21.2715V21.272V21.2726V21.2731V21.2736V21.2741V21.2746V21.2752V21.2757V21.2762V21.2767V21.2772V21.2777V21.2783V21.2788V21.2793V21.2798V21.2803V21.2809V21.2814V21.2819V21.2824V21.2829V21.2834V21.284V21.2845V21.285V21.2855V21.286V21.2866V21.2871V21.2876V21.2881V21.2886V21.2891V21.2897V21.2902V21.2907V21.2912V21.2917V21.2923V21.2928V21.2933V21.2938V21.2943V21.2948V21.2954V21.2959V21.2964V21.2969V21.2974V21.298V21.2985V21.299V21.2995V21.3V21.3006V21.3011V21.3016V21.3021V21.3026V21.3032V21.3037V21.3042V21.3047V21.3052V21.3058V21.3063V21.3068V21.3073V21.3078V21.3084V21.3089V21.3094V21.3099V21.3105V21.311V21.3115V21.312V21.3125V21.3131V21.3136V21.3141V21.3146V21.3152V21.3157V21.3162V21.3167V21.3172V21.3178V21.3183V21.3188V21.3193V21.3199V21.3204V21.3209V21.3214V21.322V21.3225V21.323V21.3235V21.3241V21.3246V21.3251V21.3256V21.3262V21.3267V21.3272V21.3278V21.3283V21.3288V21.3293V21.3299V21.3304V21.3309V21.3314V21.332V21.3325V21.333V21.3336V21.3341V21.3346V21.3352V21.3357V21.3362V21.3367V21.3373V21.3378V21.3383V21.3389V21.3394V21.3399V21.3405V21.341V21.3415V21.3421V21.3426V21.3431V21.3437V21.3442V21.3447V21.3453V21.3458V21.3463V21.3469V21.3474V21.3479V21.3485V21.349V21.3496V21.3501V21.3506V21.3512V21.3517V21.3522V21.3528V21.3533V21.3539V21.3544V21.3549V21.3555V21.356V21.3566V21.3571V21.3576V21.3582V21.3587V21.3593V21.3598V21.3603V21.3609V21.3614V21.362V21.3625V21.3631V21.3636V21.3642V21.3647V21.3653V21.3658V21.3663V21.3669V21.3674V21.368V21.3685V21.3691V21.3696V21.3702V21.3707V21.3713V21.3718V21.3724V21.3729V21.3735V21.374V21.3746V21.3751V21.3757V21.3762V21.3768V21.3773V21.3779V21.3785V21.379V21.3796V21.3801V21.3807V21.3812V21.3818V21.3824V21.3829V21.3835V21.384V21.3846V21.3851V21.3857V21.3863V21.3868V21.3874V21.388V21.3885V21.3885M23.2638 21.1269V21.1265V21.1259V21.1253V21.1247V21.1241V21.1235V21.1229V21.1223V21.1217H23.7638M23.2638 21.1269C23.2638 21.1286 23.2638 21.1302 23.2639 21.1319L23.7638 21.1217M23.2638 21.3885C23.1834 23.2555 23.0231 25.0476 22.766 26.7415M23.2638 21.3885C23.2639 21.385 23.2641 21.3814 23.2642 21.3779L23.7638 21.3993M23.2638 21.3885V21.3891V21.3896V21.3902V21.3908V21.3913V21.3919V21.3925V21.393V21.3936V21.3942V21.3947V21.3953V21.3959V21.3964V21.397V21.3976V21.3981V21.3987V21.3993H23.7638M22.766 26.7415C21.036 26.4846 19.214 26.2936 17.3186 26.2119L17.3186 26.2119L17.3117 26.2117L17.3061 26.2115C17.2098 26.2087 17.0981 26.2054 16.9812 26.2086C16.1883 26.2235 15.4493 26.4088 14.8929 26.7214C14.3562 27.0229 13.8735 27.5186 13.8856 28.1817C13.8909 28.5134 14.0242 28.7955 14.2137 29.0267M22.766 26.7415C22.9314 26.7661 23.096 26.7912 23.2597 26.8169L23.1821 27.3109M22.766 26.7415C22.7411 26.9051 22.7154 27.0678 22.6887 27.2296L23.1821 27.3109M14.2137 29.0267C14.4044 29.2614 14.4968 29.5149 14.4968 29.7854C14.4968 30.1922 14.2656 30.6089 13.7949 30.9437C13.3253 31.2776 12.6506 31.5 11.8815 31.5C11.1121 31.5 10.4374 31.2782 9.96793 30.9446C9.49763 30.6105 9.26626 30.1939 9.26626 29.7854C9.26626 29.5171 9.35918 29.2605 9.54989 29.026L9.55104 29.0245C9.73676 28.7944 9.87212 28.516 9.87743 28.1816C9.88948 27.5186 9.40694 27.023 8.87068 26.7215C8.31402 26.4085 7.57478 26.2231 6.78224 26.2086L6.78224 26.2085H6.77309H6.77249H6.77188H6.77128H6.77068H6.77007H6.76947H6.76887H6.76827H6.76767H6.76707H6.76647H6.76587H6.76527H6.76467H6.76408H6.76348H6.76288H6.76229H6.76169H6.7611H6.76051H6.75991H6.75932H6.75873H6.75814H6.75755H6.75696H6.75637H6.75578H6.75519H6.7546H6.75401H6.75343H6.75284H6.75226H6.75167H6.75109H6.7505H6.74992H6.74933H6.74875H6.74817H6.74759H6.74701H6.74643H6.74585H6.74527H6.74469H6.74411H6.74353H6.74295H6.74238H6.7418H6.74122H6.74065H6.74007H6.7395H6.73892H6.73835H6.73778H6.73721H6.73663H6.73606H6.73549H6.73492H6.73435H6.73378H6.73321H6.73264H6.73207H6.7315H6.73094H6.73037H6.7298H6.72924H6.72867H6.72811H6.72754H6.72698H6.72641H6.72585H6.72529H6.72472H6.72416H6.7236H6.72304H6.72248H6.72192H6.72136H6.7208H6.72024H6.71968H6.71912H6.71856H6.71801H6.71745H6.71689H6.71634H6.71578H6.71523H6.71467H6.71412H6.71356H6.71301H6.71245H6.7119H6.71135H6.7108H6.71024H6.70969H6.70914H6.70859H6.70804H6.70749H6.70694H6.70639H6.70584H6.70529H6.70474H6.7042H6.70365H6.7031H6.70255H6.70201H6.70146H6.70092H6.70037H6.69983H6.69928H6.69874H6.69819H6.69765H6.6971H6.69656H6.69602H6.69548H6.69493H6.69439H6.69385H6.69331H6.69277H6.69223H6.69169H6.69115H6.69061H6.69007H6.68953H6.68899H6.68845H6.68791H6.68738H6.68684H6.6863H6.68576H6.68523H6.68469H6.68415H6.68362H6.68308H6.68255H6.68201H6.68148H6.68094H6.68041H6.67987H6.67934H6.67881H6.67827H6.67774H6.67721H6.67667H6.67614H6.67561H6.67508H6.67455H6.67402H6.67348H6.67295H6.67242H6.67189H6.67136H6.67083H6.6703H6.66977H6.66924H6.66871H6.66819H6.66766H6.66713H6.6666H6.66607H6.66554H6.66502H6.66449H6.66396H6.66344H6.66291H6.66238H6.66186H6.66133H6.6608H6.66028H6.65975H6.65923H6.6587H6.65818H6.65765H6.65713H6.6566H6.65608H6.65555H6.65503H6.6545H6.65398H6.65346H6.65293H6.65241H6.65189H6.65136H6.65084H6.65032H6.6498H6.64927H6.64875H6.64823H6.64771H6.64718H6.64666H6.64614H6.64562H6.6451H6.64458H6.64405H6.64353H6.64301H6.64249H6.64197H6.64145H6.64093H6.64041H6.63989H6.63937H6.63885H6.63833H6.63781H6.63729H6.63677H6.63625H6.63573H6.63521H6.63469H6.63417H6.63365H6.63313H6.63261H6.63209H6.63158H6.63106H6.63054H6.63002H6.6295H6.62898H6.62846H6.62794H6.62743H6.62691H6.62639H6.62587H6.62535H6.62483H6.62431H6.6238H6.62328H6.62276H6.62224H6.62172H6.62121H6.62069H6.62017H6.61965H6.61913H6.61862H6.6181H6.61758H6.61706H6.61654H6.61603H6.61551H6.61499H6.61447H6.61395H6.61344H6.61292H6.6124H6.61188H6.61136H6.61085H6.61033H6.60981H6.60929H6.60877H6.60825H6.60774H6.60722H6.6067H6.60618H6.60566H6.60514H6.60463H6.60411H6.60359H6.60307H6.60255H6.60203H6.60152H6.601H6.60048H6.59996H6.59944H6.59892H6.5984H6.59788H6.59736H6.59684H6.59632H6.59581H6.59529H6.59477H6.59425H6.59373H6.59321H6.59269H6.59217H6.59165H6.59113H6.59061H6.59009H6.58956H6.58904H6.58852H6.588H6.58748H6.58696H6.58644H6.58592H6.5854H6.58487H6.58435H6.58383H6.58331H6.58279H6.58226H6.58174H6.58122H6.5807H6.58017H6.57965H6.57913H6.57861H6.57808H6.57756H6.57703H6.57651H6.57599H6.57546H6.57494H6.57441H6.57389H6.57336H6.57284H6.57231H6.57179H6.57126H6.57074H6.57021H6.56969H6.56916H6.56863H6.56811H6.56758H6.56705H6.56653H6.566H6.56547H6.56494H6.56441H6.56389H6.56336H6.56283H6.5623H6.56177H6.56124H6.56071H6.56018H6.55965H6.55912H6.55859H6.55806H6.55753H6.557H6.55647H6.55594H6.55541H6.55487H6.55434H6.55381H6.55328H6.55274H6.55221H6.55168H6.55114H6.55061H6.55007H6.54954H6.549H6.54847H6.54793H6.5474H6.54686H6.54633H6.54579H6.54525H6.54471H6.54418H6.54364H6.5431H6.54256H6.54203H6.54149H6.54095H6.54041H6.53987H6.53933H6.53879H6.53825H6.53771H6.53716H6.53662H6.53608H6.53554H6.535H6.53445H6.53391H6.53337H6.53282H6.53228H6.53173H6.53119H6.53064H6.5301H6.52955H6.52901H6.52846H6.52791H6.52737H6.52682H6.52627H6.52572H6.52517H6.52462H6.52408H6.52353H6.52298H6.52243H6.52187H6.52132H6.52077H6.52022H6.51967H6.51911H6.51856H6.51801H6.51745H6.5169H6.51634H6.51579H6.51523H6.51468H6.51412H6.51357H6.51301H6.51245H6.51189H6.51133H6.51078H6.51022H6.50966H6.5091H6.50854H6.50798H6.50741H6.50685H6.50629H6.50573H6.50516H6.5046H6.50404H6.50347H6.50291H6.50234H6.50178H6.50121H6.50064H6.50008H6.49951H6.49894H6.49837H6.49781H6.49724H6.49667H6.4961H6.49552H6.48446L6.4734 26.209C4.56927 26.2933 2.73788 26.4721 0.999697 26.7389M14.2137 29.0267C14.2135 29.0264 14.2133 29.0262 14.2131 29.026L14.6011 28.7105M14.2137 29.0267C14.2141 29.0271 14.2144 29.0275 14.2147 29.0279L14.6011 28.7105M0.999697 26.7389C1.02462 26.9034 1.05047 27.067 1.07727 27.2296L0.586878 27.3104V27.3109M0.586878 27.3109L0.5868 27.3104L0.583925 27.3109M0.586878 27.3109H0.583925M0.586878 27.3109C2.45012 27.0038 4.42853 26.8 6.49552 26.7085H6.77309C8.22589 26.7351 9.39227 27.3906 9.3775 28.1731C9.37455 28.368 9.29778 28.5422 9.16195 28.7105C8.90505 29.0265 8.76626 29.3926 8.76626 29.7854C8.76626 31.0108 10.16 32 11.8815 32C13.603 32 14.9968 31.0078 14.9968 29.7854C14.9968 29.3897 14.858 29.0265 14.6011 28.7105M0.583925 27.3109V27.293L0.509896 26.8438C0.533728 27.0003 0.558398 27.156 0.583925 27.3109ZM14.6011 28.7105C14.4653 28.5452 14.3885 28.368 14.3855 28.1731C14.3708 27.3906 15.5371 26.7351 16.9929 26.7085C17.0962 26.7055 17.1966 26.7085 17.2969 26.7115H17.297C19.3522 26.8 21.3218 27.0185 23.1821 27.3109M23.1821 27.3109C23.4892 25.4476 23.6752 23.4663 23.7638 21.3993M23.7638 21.3993V21.1217M23.7638 21.1217C23.7342 19.666 23.0787 18.4996 22.2992 18.5144C22.1043 18.5173 21.9271 18.5941 21.7617 18.7299C21.4428 18.9868 21.0796 19.1256 20.6869 19.1256C19.4674 19.1256 18.4752 17.7318 18.4752 16.0103C18.4752 14.2888 19.4644 12.8951 20.6869 12.8951C21.0826 12.8951 21.4458 13.0309 21.7617 13.2908M21.7617 13.2908C21.9271 13.4266 22.1043 13.5004 22.2992 13.5063M22.2992 13.5063C23.0817 13.5211 23.7372 12.3547 23.7638 10.899C23.7667 10.7956 23.7638 10.6953 23.7608 10.5949V10.5948M23.1821 4.70979L23.2051 4.85783C23.1975 4.80841 23.1898 4.75906 23.1821 4.70979ZM23.1821 4.70979C21.3218 4.99917 19.3522 5.19996 17.297 5.28855C17.1966 5.2915 17.0962 5.2915 16.9929 5.2915C15.5371 5.26493 14.3708 4.60939 14.3855 3.82689C14.3885 3.632 14.4653 3.45778 14.6011 3.28947C14.858 2.97352 14.9968 2.60736 14.9968 2.21464C14.9968 0.992157 13.603 0 11.8815 0C10.16 0 8.76626 0.992157 8.76626 2.21464C8.76626 2.61032 8.90505 2.97352 9.16195 3.28947M9.16195 3.28947C9.29778 3.45483 9.37455 3.632 9.3775 3.82689M9.3775 3.82689C9.39522 4.60939 8.22885 5.26493 6.77309 5.2915" stroke="#6C715C"/>
</svg>
