<svg width="42" height="42" viewBox="0 0 42 42" fill="none" xmlns="http://www.w3.org/2000/svg">
<circle opacity="0.24" cx="21" cy="21" r="19" stroke="white" stroke-width="4"/>
<mask id="path-2-inside-1_1386_33764" fill="white">
<path d="M7.56143 7.56144C6.78234 6.78234 5.51075 6.77686 4.80906 7.62634C2.14138 10.8559 0.49026 14.8233 0.0931986 19.0237C-0.366688 23.8888 0.884529 28.762 3.63131 32.8038C6.37809 36.8455 10.4484 39.8028 15.1412 41.1662C19.8339 42.5295 24.8552 42.2136 29.3401 40.2728C33.825 38.3321 37.4926 34.888 39.7111 30.5338C41.9297 26.1796 42.5603 21.1881 41.4943 16.419C40.4282 11.6499 37.7324 7.40189 33.871 4.40675C30.5372 1.82077 26.5149 0.308533 22.3345 0.0424107C21.2349 -0.0275884 20.3684 0.903114 20.403 2.00438C20.4376 3.10564 21.3612 3.95816 22.4589 4.05265C25.7091 4.33241 28.8258 5.54288 31.4256 7.55946C34.5532 9.98553 36.7369 13.4264 37.6003 17.2894C38.4638 21.1523 37.953 25.1955 36.156 28.7224C34.359 32.2492 31.3882 35.039 27.7555 36.611C24.1227 38.183 20.0555 38.4389 16.2544 37.3346C12.4532 36.2303 9.15625 33.8349 6.93136 30.561C4.70647 27.2872 3.69298 23.3399 4.06549 19.3992C4.37513 16.1236 5.62626 13.023 7.64722 10.4622C8.3298 9.59734 8.34053 8.34053 7.56143 7.56144Z"/>
</mask>
<path d="M7.56143 7.56144C6.78234 6.78234 5.51075 6.77686 4.80906 7.62634C2.14138 10.8559 0.49026 14.8233 0.0931986 19.0237C-0.366688 23.8888 0.884529 28.762 3.63131 32.8038C6.37809 36.8455 10.4484 39.8028 15.1412 41.1662C19.8339 42.5295 24.8552 42.2136 29.3401 40.2728C33.825 38.3321 37.4926 34.888 39.7111 30.5338C41.9297 26.1796 42.5603 21.1881 41.4943 16.419C40.4282 11.6499 37.7324 7.40189 33.871 4.40675C30.5372 1.82077 26.5149 0.308533 22.3345 0.0424107C21.2349 -0.0275884 20.3684 0.903114 20.403 2.00438C20.4376 3.10564 21.3612 3.95816 22.4589 4.05265C25.7091 4.33241 28.8258 5.54288 31.4256 7.55946C34.5532 9.98553 36.7369 13.4264 37.6003 17.2894C38.4638 21.1523 37.953 25.1955 36.156 28.7224C34.359 32.2492 31.3882 35.039 27.7555 36.611C24.1227 38.183 20.0555 38.4389 16.2544 37.3346C12.4532 36.2303 9.15625 33.8349 6.93136 30.561C4.70647 27.2872 3.69298 23.3399 4.06549 19.3992C4.37513 16.1236 5.62626 13.023 7.64722 10.4622C8.3298 9.59734 8.34053 8.34053 7.56143 7.56144Z" stroke="white" stroke-width="6" mask="url(#path-2-inside-1_1386_33764)"/>
</svg>
