<svg width="20" height="20" viewBox="0 0 20 20" fill="none" xmlns="http://www.w3.org/2000/svg">
<path d="M15.1171 18.0176C14.3838 18.2343 13.5171 18.3343 12.5005 18.3343H7.50045C6.48379 18.3343 5.61712 18.2343 4.88379 18.0176C5.06712 15.8509 7.29212 14.1426 10.0005 14.1426C12.7088 14.1426 14.9338 15.8509 15.1171 18.0176Z" stroke="#2C2E35" stroke-linecap="round" stroke-linejoin="round"/>
<path d="M12.5003 1.66602H7.50033C3.33366 1.66602 1.66699 3.33268 1.66699 7.49935V12.4993C1.66699 15.6493 2.61699 17.3743 4.88366 18.016C5.06699 15.8493 7.29199 14.141 10.0003 14.141C12.7087 14.141 14.9337 15.8493 15.117 18.016C17.3837 17.3743 18.3337 15.6493 18.3337 12.4993V7.49935C18.3337 3.33268 16.667 1.66602 12.5003 1.66602ZM10.0003 11.8077C8.35033 11.8077 7.01699 10.466 7.01699 8.81603C7.01699 7.16603 8.35033 5.83268 10.0003 5.83268C11.6503 5.83268 12.9837 7.16603 12.9837 8.81603C12.9837 10.466 11.6503 11.8077 10.0003 11.8077Z" stroke="#2C2E35" stroke-linecap="round" stroke-linejoin="round"/>
<path d="M12.9833 8.81733C12.9833 10.4673 11.6499 11.809 9.99994 11.809C8.34994 11.809 7.0166 10.4673 7.0166 8.81733C7.0166 7.16733 8.34994 5.83398 9.99994 5.83398C11.6499 5.83398 12.9833 7.16733 12.9833 8.81733Z" stroke="#2C2E35" stroke-linecap="round" stroke-linejoin="round"/>
</svg>
