<svg width="18" height="18" viewBox="0 0 18 18" fill="none" xmlns="http://www.w3.org/2000/svg">
<path d="M9 0.25C4.17578 0.25 0.25 4.17578 0.25 9C0.25 13.8242 4.17578 17.75 9 17.75C13.8242 17.75 17.75 13.8242 17.75 9C17.75 4.17578 13.8242 0.25 9 0.25ZM9 1.5C13.1504 1.5 16.5 4.84961 16.5 9C16.5 13.1504 13.1504 16.5 9 16.5C4.84961 16.5 1.5 13.1504 1.5 9C1.5 4.84961 4.84961 1.5 9 1.5ZM9.37109 5.25C8.72656 5.25 8.12598 5.43066 7.59375 5.71875L8.53125 6.65625C8.79492 6.56348 9.07812 6.5 9.37109 6.5C10.2939 6.5 11.0898 7.00781 11.5195 7.75H9.625L12.125 10.25L14.625 7.75H12.8916C12.374 6.29981 11.002 5.25 9.37109 5.25ZM5.875 7.75L3.375 10.25H5.1084C5.62598 11.7002 6.99805 12.75 8.62891 12.75C9.27344 12.75 9.87402 12.5693 10.4062 12.2812L9.46875 11.3438C9.20508 11.4365 8.92188 11.5 8.62891 11.5C7.70606 11.5 6.91016 10.9922 6.48047 10.25H8.375L5.875 7.75Z" fill="#B1908E"/>
</svg>
