<svg width="64" height="64" viewBox="0 0 64 64" fill="none" xmlns="http://www.w3.org/2000/svg">
<path d="M4 39.729V46.3001C4 49.2613 5.31237 52.0702 7.5836 53.9702L9.61483 55.6694C11.4141 57.1746 13.6854 57.9993 16.0312 57.9993H47.9688C50.3147 57.9993 52.5859 57.1746 54.3852 55.6694L56.4164 53.9702C58.6876 52.0702 60 49.2613 60 46.3001V39.729M4 39.729V35.1074C4 34.5551 4.44772 34.1074 5 34.1074H59C59.5523 34.1074 60 34.5551 60 35.1074V39.729M4 39.729L5.02674 39.3855C7.08613 38.6964 9.31387 38.6964 11.3733 39.3855L13.4267 40.0726C15.4861 40.7617 17.7139 40.7617 19.7733 40.0726L21.5129 39.4905C23.7639 38.7373 26.2096 38.8093 28.4124 39.6939L28.5876 39.7642C30.7904 40.6488 33.2361 40.7208 35.4871 39.9676L37.2267 39.3855C39.2861 38.6964 41.5139 38.6964 43.5733 39.3855L45.3129 39.9676C47.5639 40.7208 50.0096 40.6488 52.2124 39.7642L52.3876 39.6939C54.5904 38.8093 57.0361 38.7373 59.2871 39.4905L60 39.729" stroke="#B1908E" stroke-linecap="round" stroke-linejoin="round"/>
<path d="M9.59961 46.755H12.3996M29.1996 45.3496H31.9996M19.3996 52.3766H22.1996M40.3996 50.9712H43.1996M52.9996 48.1604H55.7996" stroke="#B1908E" stroke-linecap="round" stroke-linejoin="round"/>
<path d="M54.4004 11.6216L49.5004 14.573M20.8004 17.2432V17.2432C26.367 18.1746 32.0441 18.2408 37.6309 17.4396L39.0004 17.2432L44.9825 16.2424C46.5801 15.9751 48.1129 15.4087 49.5004 14.573V14.573M49.5004 14.573L43.8856 10.6901C43.4299 10.375 42.944 10.1059 42.4351 9.88695L35.9814 7.11043C34.6289 6.52854 33.0772 7.29775 32.7214 8.7265V8.7265C32.3517 10.2108 30.701 10.9694 29.3339 10.2832L26.7025 8.96244C26.5013 8.86148 26.2933 8.77497 26.0799 8.70355L25.663 8.56406C23.4158 7.81211 20.985 7.81211 18.7378 8.56406L13.8004 10.2162L6.92232 12.5178C6.14043 12.7794 5.80075 13.6969 6.22375 14.4046L7.83393 17.0986C8.9876 19.0288 10.6679 20.5899 12.6776 21.5986L15.1901 22.8597C16.1 23.3164 17.1435 23.4313 18.1309 23.1835L21.8217 22.2572C23.2615 21.8959 24.5671 23.1991 24.2084 24.6396V24.6396C23.8995 25.8802 24.838 27.0811 26.1165 27.0811H28.5004H31.2119C32.6654 27.0811 34.1133 26.9022 35.523 26.5484V26.5484C37.818 25.9724 39.9743 24.9424 41.8646 23.5192L42.1744 23.286C43.7822 22.0755 45.1942 20.6249 46.3609 18.9852L49.5004 14.573Z" stroke="#B1908E" stroke-linecap="round" stroke-linejoin="round"/>
</svg>
