<svg width="64" height="64" viewBox="0 0 64 64" fill="none" xmlns="http://www.w3.org/2000/svg">
<path d="M26.5 12L27.3365 17.6635L33 18.5L27.3365 19.3365L26.5 25L25.6635 19.3365L20 18.5L25.6635 17.6635L26.5 12Z" fill="#B1908E"/>
<path d="M16.5 27L17.3365 32.6635L23 33.5L17.3365 34.3365L16.5 40L15.6635 34.3365L10 33.5L15.6635 32.6635L16.5 27Z" fill="#B1908E"/>
<path d="M46.5 34L47.3365 39.6635L53 40.5L47.3365 41.3365L46.5 47L45.6635 41.3365L40 40.5L45.6635 39.6635L46.5 34Z" fill="#B1908E"/>
<path d="M41 18L42.0295 24.9705L49 26L42.0295 27.0295L41 34L39.9705 27.0295L33 26L39.9705 24.9705L41 18Z" fill="#B1908E"/>
<path d="M28 36L29.0295 42.9705L36 44L29.0295 45.0295L28 52L26.9705 45.0295L20 44L26.9705 42.9705L28 36Z" fill="#B1908E"/>
</svg>
