<svg width="65" height="64" viewBox="0 0 65 64" fill="none" xmlns="http://www.w3.org/2000/svg">
<path d="M4.33398 30H60.334" stroke="#B1908E" stroke-linecap="round" stroke-linejoin="round"/>
<path d="M4.33398 53H60.334" stroke="#B1908E" stroke-linecap="round" stroke-linejoin="round"/>
<path d="M4.33398 48H6.33398" stroke="#B1908E" stroke-linecap="round" stroke-linejoin="round"/>
<path d="M12.0488 48H14.0488" stroke="#B1908E" stroke-linecap="round" stroke-linejoin="round"/>
<path d="M19.7617 48H21.7617" stroke="#B1908E" stroke-linecap="round" stroke-linejoin="round"/>
<path d="M27.4766 48H29.4766" stroke="#B1908E" stroke-linecap="round" stroke-linejoin="round"/>
<path d="M35.1914 48H37.1914" stroke="#B1908E" stroke-linecap="round" stroke-linejoin="round"/>
<path d="M42.9062 48H44.9063" stroke="#B1908E" stroke-linecap="round" stroke-linejoin="round"/>
<path d="M50.6191 48H52.6191" stroke="#B1908E" stroke-linecap="round" stroke-linejoin="round"/>
<path d="M58.334 48H60.334" stroke="#B1908E" stroke-linecap="round" stroke-linejoin="round"/>
<path d="M4.33398 44L5.73472 43.7199C8.03511 43.2598 10.0503 41.8858 11.3189 39.9124V39.9124C14.6575 34.719 22.2039 34.5899 25.7182 39.6661L26.0178 40.0988C26.8762 41.3388 28.0807 42.2987 29.4809 42.8588L29.5966 42.9051C31.3538 43.6079 33.3141 43.6079 35.0713 42.9051V42.9051C36.5407 42.3173 37.7818 41.2723 38.6112 39.9246L38.7114 39.7618C41.7794 34.7762 49.0016 34.7051 52.1671 39.6294L52.372 39.9481C53.6214 41.8915 55.6338 43.2166 57.9128 43.5965L60.334 44" stroke="#B1908E" stroke-linecap="round" stroke-linejoin="round"/>
<path d="M15.334 11C15.2817 11.0001 15.2302 11.0124 15.1837 11.0361C15.1371 11.0597 15.0967 11.094 15.0658 11.1361C15.0624 11.1403 15.0591 11.1447 15.056 11.1491C14.2689 12.1619 12.334 15.3412 12.334 17C12.334 18.657 13.677 20 15.334 20C16.991 20 18.334 18.657 18.334 17C18.334 15.343 16.4033 12.1701 15.6146 11.1536C15.6145 11.1535 15.6147 11.1531 15.6146 11.153C15.6106 11.1472 15.6065 11.1416 15.6022 11.1361C15.5713 11.094 15.5309 11.0597 15.4843 11.0361C15.4377 11.0124 15.3862 11.0001 15.334 11Z" fill="#B1908E"/>
<path d="M33.334 17C33.2817 17.0001 33.2302 17.0124 33.1837 17.0361C33.1371 17.0597 33.0967 17.094 33.0658 17.1361C33.0624 17.1403 33.0591 17.1447 33.056 17.1491C32.2689 18.1619 30.334 21.3412 30.334 23C30.334 24.657 31.677 26 33.334 26C34.991 26 36.334 24.657 36.334 23C36.334 21.343 34.4033 18.1701 33.6146 17.1536C33.6145 17.1535 33.6147 17.1531 33.6146 17.153C33.6106 17.1472 33.6065 17.1416 33.6022 17.1361C33.5713 17.094 33.5309 17.0597 33.4843 17.0361C33.4377 17.0124 33.3862 17.0001 33.334 17Z" fill="#B1908E"/>
<path d="M49.334 13C49.2817 13.0001 49.2302 13.0124 49.1837 13.0361C49.1371 13.0597 49.0967 13.094 49.0658 13.1361C49.0624 13.1403 49.0591 13.1447 49.056 13.1491C48.2689 14.1619 46.334 17.3412 46.334 19C46.334 20.657 47.677 22 49.334 22C50.991 22 52.334 20.657 52.334 19C52.334 17.343 50.4033 14.1701 49.6146 13.1536C49.6145 13.1535 49.6147 13.1531 49.6146 13.153C49.6106 13.1472 49.6065 13.1416 49.6022 13.1361C49.5713 13.094 49.5309 13.0597 49.4843 13.0361C49.4377 13.0124 49.3862 13.0001 49.334 13Z" fill="#B1908E"/>
</svg>
