<svg width="64" height="64" viewBox="0 0 64 64" fill="none" xmlns="http://www.w3.org/2000/svg">
<ellipse cx="39.8" cy="39.8116" rx="0.799989" ry="0.811586" fill="#B1908E"/>
<ellipse cx="51.8" cy="49.8116" rx="0.799989" ry="0.811586" fill="#B1908E"/>
<ellipse cx="33.8" cy="49.8116" rx="0.799989" ry="0.811586" fill="#B1908E"/>
<ellipse cx="20.8" cy="40.8116" rx="0.799989" ry="0.811586" fill="#B1908E"/>
<ellipse cx="10.8" cy="49.8116" rx="0.799989" ry="0.811586" fill="#B1908E"/>
<path d="M5 27H26.2098C26.6462 27 27 27.3538 27 27.7902V27.7902C27 27.9277 26.9641 28.0628 26.8959 28.1822L25.9823 29.7809C24.2711 32.7756 25.0223 36.5729 27.7449 38.6905L27.9719 38.867C30.3412 40.7098 33.6588 40.7098 36.0281 38.867V38.867C38.8062 36.7063 39.3846 32.7384 37.3389 29.8745L36.1411 28.1975C36.0493 28.069 36 27.9151 36 27.7573V27.7573C36 27.3391 36.3391 27 36.7573 27H59" stroke="#B1908E" stroke-linecap="round" stroke-linejoin="round"/>
<path d="M5 35H20" stroke="#B1908E" stroke-linecap="round" stroke-linejoin="round"/>
<path d="M44 35H59" stroke="#B1908E" stroke-linecap="round" stroke-linejoin="round"/>
<circle cx="41.5" cy="48.5" r="1.5" stroke="#B1908E" stroke-linecap="round"/>
<circle cx="50.5" cy="42.5" r="1.5" stroke="#B1908E" stroke-linecap="round"/>
<circle cx="13.5" cy="42.5" r="1.5" stroke="#B1908E" stroke-linecap="round"/>
<circle cx="31.5" cy="44.5" r="1.5" stroke="#B1908E" stroke-linecap="round"/>
<circle cx="22.5" cy="48.5" r="1.5" stroke="#B1908E" stroke-linecap="round"/>
<path d="M16 17.5L28 17.5M28 17.5L23.7143 13M28 17.5L23.7143 22" stroke="#B1908E" stroke-linecap="round"/>
<path d="M48 17.5L36 17.5M36 17.5L40.2857 13M36 17.5L40.2857 22" stroke="#B1908E" stroke-linecap="round"/>
</svg>
