<svg width="64" height="64" viewBox="0 0 64 64" fill="none" xmlns="http://www.w3.org/2000/svg">
<ellipse cx="39.8" cy="37.8116" rx="0.799989" ry="0.811586" fill="#B1908E"/>
<ellipse cx="51.8" cy="47.8116" rx="0.799989" ry="0.811586" fill="#B1908E"/>
<ellipse cx="33.8" cy="47.8116" rx="0.799989" ry="0.811586" fill="#B1908E"/>
<ellipse cx="20.8" cy="38.8116" rx="0.799989" ry="0.811586" fill="#B1908E"/>
<ellipse cx="10.8" cy="47.8116" rx="0.799989" ry="0.811586" fill="#B1908E"/>
<path d="M28 25H17M40 59H8C6.34315 59 5 57.6569 5 56V51M44 59H56C57.6569 59 59 57.6569 59 56V51M42 25H45M38 25H36M5 34V28C5 26.3431 6.34315 25 8 25H11M5 34H13M5 34V51M17 34H26M36 34H59M59 34V28C59 26.3431 57.6569 25 56 25H50M59 34V51M5 51L5.72132 51.2885C8.52456 52.4098 11.5731 52.7753 14.562 52.3483V52.3483C16.1791 52.1173 17.8209 52.1173 19.438 52.3483L20.613 52.5161C22.861 52.8373 25.1417 52.8573 27.3949 52.5756L28.6051 52.4244C30.8583 52.1427 33.139 52.1627 35.387 52.4839L35.6398 52.52C37.8686 52.8384 40.1314 52.8384 42.3602 52.52L43.549 52.3501C45.1733 52.1181 46.8237 52.1373 48.4422 52.407V52.407C50.7847 52.7974 53.1847 52.6615 55.4681 52.0091L59 51M11 25L12.6025 21.566C13.8652 18.8602 15.3544 16.2659 17.054 13.8108L19 11L18.6748 12.2195C17.563 16.3887 17 20.6851 17 25V25M11 25H17M45 25V25C46.655 20.035 49.1292 15.382 52.3202 11.2338L52.5 11L51.3382 15.1824C50.4502 18.3794 50 21.682 50 25V25M45 25H50" stroke="#B1908E" stroke-linecap="round" stroke-linejoin="round"/>
<circle cx="41.5" cy="46.5" r="1.5" stroke="#B1908E" stroke-linecap="round"/>
<circle cx="50.5" cy="40.5" r="1.5" stroke="#B1908E" stroke-linecap="round"/>
<circle cx="13.5" cy="40.5" r="1.5" stroke="#B1908E" stroke-linecap="round"/>
<circle cx="22.5" cy="46.5" r="1.5" stroke="#B1908E" stroke-linecap="round"/>
<path d="M36 18L38 6C35.3464 9.31695 33.171 12.9896 31.5373 16.9106L31.5 17L30 21L28 28L26.3224 35.5492C26.1114 36.4985 26.1624 37.4873 26.47 38.4099L26.5351 38.6053C26.8378 39.5135 27.4103 40.3077 28.1761 40.8821L28.6 41.2C30.0222 42.2667 31.9778 42.2667 33.4 41.2C34.4072 40.4446 35 39.259 35 38V34L36 18Z" stroke="#B1908E" stroke-linecap="round" stroke-linejoin="round"/>
</svg>
