<svg width="64" height="64" viewBox="0 0 64 64" fill="none" xmlns="http://www.w3.org/2000/svg">
<path d="M4 40.5215L6.56068 41.041C7.5108 41.2338 8.41338 41.6127 9.21644 42.1558L9.82773 42.5693C11.662 43.8099 14.0249 43.958 15.9998 42.9562V42.9562" stroke="#B1908E" stroke-linecap="round"/>
<path d="M19.1992 41.3332V41.3332C21.2105 40.313 23.5878 40.313 25.5991 41.3332L27.1991 42.1448L27.5802 42.3381C30.3165 43.7261 33.5841 43.5563 36.1618 41.8921V41.8921C38.9887 40.0671 42.6187 40.0523 45.4604 41.8541L45.7574 42.0424C46.7088 42.6457 47.7709 43.0531 48.8817 43.2409V43.2409C50.892 43.5808 52.9726 43.1752 54.7143 42.115V42.115C55.5594 41.6006 56.4946 41.2326 57.4642 41.0359L59.9987 40.5216" stroke="#B1908E" stroke-linecap="round"/>
<ellipse cx="13.5992" cy="48.6379" rx="2.39997" ry="2.43476" stroke="#B1908E" stroke-linecap="round"/>
<ellipse cx="6.3996" cy="33.2178" rx="0.799989" ry="0.811586" fill="#B1908E"/>
<ellipse cx="9.60077" cy="36.4639" rx="0.799989" ry="0.811586" fill="#B1908E"/>
<ellipse cx="13.5988" cy="39.71" rx="0.799989" ry="0.811586" fill="#B1908E"/>
<ellipse cx="13.5988" cy="33.2178" rx="0.799989" ry="0.811586" fill="#B1908E"/>
<ellipse cx="16.8" cy="36.4639" rx="0.799989" ry="0.811586" fill="#B1908E"/>
<ellipse cx="22.4016" cy="37.2764" rx="0.799989" ry="0.811586" fill="#B1908E"/>
<ellipse cx="28.8" cy="36.4639" rx="0.799989" ry="0.811586" fill="#B1908E"/>
<ellipse cx="31.9992" cy="39.71" rx="0.799989" ry="0.811586" fill="#B1908E"/>
<ellipse cx="35.1984" cy="36.4639" rx="0.799989" ry="0.811586" fill="#B1908E"/>
<ellipse cx="41.5988" cy="37.2764" rx="0.799989" ry="0.811586" fill="#B1908E"/>
<ellipse cx="47.2004" cy="36.4639" rx="0.799989" ry="0.811586" fill="#B1908E"/>
<ellipse cx="50.3996" cy="33.2178" rx="0.799989" ry="0.811586" fill="#B1908E"/>
<ellipse cx="53.5988" cy="36.4639" rx="0.799989" ry="0.811586" fill="#B1908E"/>
<ellipse cx="50.3996" cy="39.71" rx="0.799989" ry="0.811586" fill="#B1908E"/>
<ellipse cx="57.5988" cy="33.2178" rx="0.799989" ry="0.811586" fill="#B1908E"/>
<ellipse cx="52.8" cy="16.1749" rx="0.799989" ry="0.811586" fill="#B1908E"/>
<ellipse cx="55.9992" cy="20.2315" rx="0.799989" ry="0.811586" fill="#B1908E"/>
<ellipse cx="54.3996" cy="6.43463" rx="0.799989" ry="0.811586" fill="#B1908E"/>
<ellipse cx="57.5988" cy="4.81159" rx="0.799989" ry="0.811586" fill="#B1908E"/>
<ellipse cx="57.5988" cy="8.87018" rx="0.799989" ry="0.811586" fill="#B1908E"/>
<ellipse cx="9.60077" cy="5.62213" rx="0.799989" ry="0.811586" fill="#B1908E"/>
<ellipse cx="6.3996" cy="4.81159" rx="0.799989" ry="0.811586" fill="#B1908E"/>
<ellipse cx="6.3996" cy="8.87018" rx="0.799989" ry="0.811586" fill="#B1908E"/>
<ellipse cx="11.2004" cy="15.3624" rx="0.799989" ry="0.811586" fill="#B1908E"/>
<ellipse cx="8.79999" cy="20.2315" rx="0.799989" ry="0.811586" fill="#B1908E"/>
<ellipse cx="31.9996" cy="48.6379" rx="2.39997" ry="2.43476" stroke="#B1908E" stroke-linecap="round"/>
<ellipse cx="50.4" cy="48.6379" rx="2.39997" ry="2.43476" stroke="#B1908E" stroke-linecap="round"/>
<ellipse cx="22.3988" cy="46.2033" rx="1.59998" ry="1.62317" stroke="#B1908E" stroke-linecap="round"/>
<ellipse cx="6.39881" cy="14.549" rx="1.59998" ry="1.62317" stroke="#B1908E" stroke-linecap="round"/>
<ellipse cx="12.7992" cy="10.4943" rx="1.59998" ry="1.62317" stroke="#B1908E" stroke-linecap="round"/>
<ellipse cx="51.1996" cy="10.4943" rx="1.59998" ry="1.62317" stroke="#B1908E" stroke-linecap="round"/>
<ellipse cx="57.598" cy="14.549" rx="1.59998" ry="1.62317" stroke="#B1908E" stroke-linecap="round"/>
<path d="M60.0004 47.8264C59.1167 47.8264 58.4004 47.0997 58.4004 46.2032C58.4004 45.3068 59.1167 44.5801 60.0004 44.5801" stroke="#B1908E" stroke-linecap="round"/>
<ellipse cx="41.6" cy="46.2033" rx="1.59998" ry="1.62317" stroke="#B1908E" stroke-linecap="round"/>
<path d="M4 47.8264C4.88364 47.8264 5.59998 47.0997 5.59998 46.2032C5.59998 45.3068 4.88364 44.5801 4 44.5801" stroke="#B1908E" stroke-linecap="round"/>
<path d="M4 60H59.9992" stroke="#B1908E" stroke-linecap="round"/>
<path d="M4 51.0723L7.96321 52.8998C11.044 54.3205 14.5808 54.3774 17.7057 53.0565V53.0565C20.7065 51.788 24.093 51.788 27.0938 53.0565L27.7402 53.3297C30.4533 54.4766 33.5241 54.4272 36.199 53.1937V53.1937C39.1048 51.8538 42.4638 51.9165 45.3175 53.364L48.7994 55.1302" stroke="#B1908E" stroke-linecap="round"/>
<path d="M52 55.1292L52.5136 54.8165C54.8203 53.4125 57.3534 52.4198 59.9999 51.8828V51.8828" stroke="#B1908E" stroke-linecap="round"/>
<path d="M4 25.1036L4.62876 24.7847C6.12411 24.0262 7.94693 24.4277 8.98517 25.7443L9.37783 26.2423C9.99948 27.0306 11.0267 27.3794 11.9999 27.1326V27.1326C12.973 26.8858 14.0003 27.2346 14.6219 28.0229L15.9047 29.6496C16.4414 30.3302 17.3482 30.5993 18.1692 30.3217V30.3217C18.8136 30.1037 19.5242 30.22 20.0656 30.6319L21.1572 31.4625C21.9633 32.0758 22.9482 32.4079 23.9611 32.4079H38.3995M43.1995 30.7847L43.9994 29.9732C44.4394 29.5268 45.1595 29.5268 45.5994 29.9732V29.9732C46.0394 30.4195 46.7594 30.4195 47.1994 29.9732L49.5633 27.575C50.0747 27.0562 50.8374 26.875 51.5275 27.1083V27.1083C52.29 27.3662 53.1322 27.1162 53.6306 26.4842L54.3494 25.5727C55.3268 24.3333 57.0056 23.8888 58.4683 24.4824L59.9992 25.1036" stroke="#B1908E" stroke-linecap="round"/>
<path d="M19.1987 24.2905V24.2905C17.8705 23.482 16.6467 22.5131 15.5551 21.4056L14.3988 20.2325L12.7988 18.6094M12.7988 18.6094V23.4789M12.7988 18.6094H17.5988" stroke="#B1908E" stroke-linecap="round" stroke-linejoin="round"/>
<path d="M22.4004 25.9136L26.175 26.958C29.4785 27.872 32.9511 27.9932 36.3102 27.3116V27.3116C38.2281 26.9225 40.0848 26.2765 41.83 25.3912L42.544 25.0291C44.5736 23.9995 46.4686 22.7237 48.1859 21.2303L51.2 18.6094M51.2 18.6094V23.4789M51.2 18.6094H46.4001" stroke="#B1908E" stroke-linecap="round" stroke-linejoin="round"/>
</svg>
