<svg width="64" height="64" viewBox="0 0 64 64" fill="none" xmlns="http://www.w3.org/2000/svg">
<ellipse cx="39.8" cy="34.8116" rx="0.799989" ry="0.811586" fill="#B1908E"/>
<ellipse cx="51.8" cy="44.8116" rx="0.799989" ry="0.811586" fill="#B1908E"/>
<ellipse cx="33.8" cy="44.8116" rx="0.799989" ry="0.811586" fill="#B1908E"/>
<ellipse cx="20.8" cy="35.8116" rx="0.799989" ry="0.811586" fill="#B1908E"/>
<ellipse cx="10.8" cy="44.8116" rx="0.799989" ry="0.811586" fill="#B1908E"/>
<path d="M5 31V25C5 23.3431 6.34315 22 8 22H27.1459C28.6042 22 29.0683 23.9659 27.7639 24.618V24.618C27.2957 24.8521 27 25.3307 27 25.8541V26.5657C27 27.4555 27.4669 28.2801 28.2299 28.738L30.4565 30.0739C31.4066 30.6439 32.5934 30.6439 33.5435 30.0739L35.7701 28.738C36.5331 28.2801 37 27.4555 37 26.5657V25.8541C37 25.3307 36.7043 24.8521 36.2361 24.618V24.618C34.9317 23.9659 35.3958 22 36.8541 22H56C57.6569 22 59 23.3431 59 25V31M5 31V48M5 31L6.31794 31.5272C8.70483 32.4819 11.3413 32.6168 13.8131 31.9105C15.896 31.3154 18.104 31.3154 20.1869 31.9105L20.6134 32.0324C22.8321 32.6663 25.1784 32.7054 27.4169 32.1458L28.5831 31.8542C30.8216 31.2946 33.1679 31.3337 35.3866 31.9676L35.6391 32.0397C37.8357 32.6674 40.1642 32.6674 42.3609 32.0397L42.9594 31.8687C44.9402 31.3028 47.0457 31.3486 49 32C50.9543 32.6514 53.0598 32.6972 55.0406 32.1313L59 31M59 31V48M5 48L6.62029 48.6481C8.81119 49.5245 11.2311 49.6483 13.5 49V49M5 48V52M24 50L32 48M24 50L19 48.5714M24 50L27 53M32 48L31 52M32 48L35.5 49M52 50L49.4533 49.1511C47.2037 48.4012 44.78 48.3486 42.5 49V49M52 50L59 48M52 50L49 53M59 48V52M5 52V53C5 54.6569 6.34315 56 8 56H13.8131M5 52H11M11 52L13.5 49M11 52L13.8131 56M13.5 49L15 48.5714C16.3072 48.1979 17.6928 48.1979 19 48.5714V48.5714M13.8131 56L18 53M13.8131 56H24M18 53L19 48.5714M18 53L24 56M24 56L27 53M24 56H34M27 53L31 52M31 52L34 56M34 56L38 53M34 56H42M38 53L35.5 49M38 53L42 56M35.5 49V49C37.7876 49.6536 40.2124 49.6536 42.5 49V49M42 56H44H52M42 56L44 53M44 53L42.5 49M44 53H49M49 53L52 56M49 53L59 52M52 56H56C57.6569 56 59 54.6569 59 53V52" stroke="#B1908E" stroke-linecap="round" stroke-linejoin="round"/>
<circle cx="41.5" cy="43.5" r="1.5" stroke="#B1908E" stroke-linecap="round"/>
<circle cx="50.5" cy="37.5" r="1.5" stroke="#B1908E" stroke-linecap="round"/>
<circle cx="13.5" cy="37.5" r="1.5" stroke="#B1908E" stroke-linecap="round"/>
<circle cx="31.5" cy="39.5" r="1.5" stroke="#B1908E" stroke-linecap="round"/>
<circle cx="22.5" cy="43.5" r="1.5" stroke="#B1908E" stroke-linecap="round"/>
<path d="M16 12.5L28 12.5M28 12.5L23.7143 8M28 12.5L23.7143 17" stroke="#B1908E" stroke-linecap="round"/>
<path d="M48 12.5L36 12.5M36 12.5L40.2857 8M36 12.5L40.2857 17" stroke="#B1908E" stroke-linecap="round"/>
</svg>
