<svg width="64" height="64" viewBox="0 0 64 64" fill="none" xmlns="http://www.w3.org/2000/svg">
<path d="M49 33L50 34L51 33" stroke="#B1908E" stroke-linecap="round" stroke-linejoin="round"/>
<path d="M49 36L50 37L51 36" stroke="#B1908E" stroke-linecap="round" stroke-linejoin="round"/>
<path d="M49 39L50 40L51 39" stroke="#B1908E" stroke-linecap="round" stroke-linejoin="round"/>
<path d="M49 42L50 43L51 42" stroke="#B1908E" stroke-linecap="round" stroke-linejoin="round"/>
<path d="M49 45L50 46L51 45" stroke="#B1908E" stroke-linecap="round" stroke-linejoin="round"/>
<path d="M53 46L54 45L55 46" stroke="#B1908E" stroke-linecap="round" stroke-linejoin="round"/>
<path d="M53 43L54 42L55 43" stroke="#B1908E" stroke-linecap="round" stroke-linejoin="round"/>
<path d="M53 40L54 39L55 40" stroke="#B1908E" stroke-linecap="round" stroke-linejoin="round"/>
<path d="M53 37L54 36L55 37" stroke="#B1908E" stroke-linecap="round" stroke-linejoin="round"/>
<path d="M53 34L54 33L55 34" stroke="#B1908E" stroke-linecap="round" stroke-linejoin="round"/>
<path d="M9 12L10 13L11 12" stroke="#B1908E" stroke-linecap="round" stroke-linejoin="round"/>
<path d="M9 15L10 16L11 15" stroke="#B1908E" stroke-linecap="round" stroke-linejoin="round"/>
<path d="M9 18L10 19L11 18" stroke="#B1908E" stroke-linecap="round" stroke-linejoin="round"/>
<path d="M9 21L10 22L11 21" stroke="#B1908E" stroke-linecap="round" stroke-linejoin="round"/>
<path d="M9 24L10 25L11 24" stroke="#B1908E" stroke-linecap="round" stroke-linejoin="round"/>
<path d="M13 25L14 24L15 25" stroke="#B1908E" stroke-linecap="round" stroke-linejoin="round"/>
<path d="M13 22L14 21L15 22" stroke="#B1908E" stroke-linecap="round" stroke-linejoin="round"/>
<path d="M13 19L14 18L15 19" stroke="#B1908E" stroke-linecap="round" stroke-linejoin="round"/>
<path d="M13 16L14 15L15 16" stroke="#B1908E" stroke-linecap="round" stroke-linejoin="round"/>
<path d="M13 13L14 12L15 13" stroke="#B1908E" stroke-linecap="round" stroke-linejoin="round"/>
<path d="M32.4445 21.168C32.1778 20.944 31.8075 20.944 31.5408 21.168C30.1334 22.328 25.9779 26.112 26.0001 30.52C26.0001 34.088 28.689 37 32.0001 37C35.3111 37 38 34.096 38 30.528C38.0074 26.184 33.8445 22.336 32.4445 21.168Z" stroke="#B1908E" stroke-linecap="round"/>
<path d="M45 29C45 36.1855 39.1855 42 32 42C24.8145 42 20.4418 34.7673 20.4418 34.7673M20.4418 34.7673H23.3036M20.4418 34.7673V38.2673M19 29C19 21.8145 24.7673 16 32 16C40.6745 16 45 23.2327 45 23.2327M45 23.2327V20.7327M45 23.2327H42.2327" stroke="#B1908E" stroke-linecap="round" stroke-linejoin="round"/>
<path d="M5 50L6.5 51C7.40833 51.6056 8.59167 51.6056 9.5 51V51C10.4083 50.3944 11.5917 50.3944 12.5 51V51C13.4083 51.6056 14.5917 51.6056 15.5 51V51C16.4083 50.3944 17.5917 50.3944 18.5 51V51C19.4083 51.6056 20.5917 51.6056 21.5 51V51C22.4083 50.3944 23.5917 50.3944 24.5 51V51C25.4083 51.6056 26.5917 51.6056 27.5 51V51C28.4083 50.3944 29.5917 50.3944 30.5 51V51C31.4083 51.6056 32.5917 51.6056 33.5 51V51C34.4083 50.3944 35.5917 50.3944 36.5 51V51C37.4083 51.6056 38.5917 51.6056 39.5 51V51C40.4083 50.3944 41.5917 50.3944 42.5 51V51C43.4083 51.6056 44.5917 51.6056 45.5 51V51C46.4083 50.3944 47.5917 50.3944 48.5 51V51C49.4083 51.6056 50.5917 51.6056 51.5 51V51C52.4083 50.3944 53.5917 50.3944 54.5 51V51C55.4083 51.6056 56.5917 51.6056 57.5 51L59 50" stroke="#B1908E" stroke-linecap="round" stroke-linejoin="round"/>
</svg>
