<svg width="64" height="64" viewBox="0 0 64 64" fill="none" xmlns="http://www.w3.org/2000/svg">
<path d="M5 24H18.5M32 24H18.5M18.5 24L24.6241 21.5504C25.5364 21.1854 26.3899 20.6881 27.1572 20.0743L29.5967 18.1227C30.5248 17.3802 31.3131 16.4782 31.9246 15.4589L33.7063 12.4895C33.901 12.1649 34.0467 11.8134 34.1384 11.4462L34.604 9.58417C34.8274 8.69026 34.325 7.775 33.4509 7.48362V7.48362C32.6184 7.20612 31.7085 7.583 31.3161 8.36789L30.1884 10.6233C30.063 10.8739 29.9154 11.1128 29.7473 11.3369L27.8571 13.8571C27.2886 14.6152 26.6152 15.2886 25.8571 15.8571L24.0581 17.2064C23.3558 17.7332 22.5871 18.1652 21.772 18.4912L19.7881 19.2848C18.6069 19.7572 17.3464 20 16.0742 20H5M59 24H36L42 22L46.029 21.1942C46.6748 21.065 47.3317 21 47.9902 21H59M5 30H47M51 30H59M59 39L58.3153 38.7261C52.365 36.346 45.7006 36.4997 39.8664 39.1516V39.1516C38.6579 39.701 37.2989 39.8247 36.0111 39.5028L28.4254 37.6063C26.833 37.2082 25.167 37.2082 23.5746 37.6063L16.8251 39.2937C14.98 39.755 13.0417 39.6806 11.2374 39.0791L5 37" stroke="#B1908E" stroke-linecap="round" stroke-linejoin="round"/>
<path d="M49 37V44M49 44L53 47M49 44L47 46M59 53H32C29.2386 53 27 50.7614 27 48V48M27 48L29 42M27 48L23.4961 45.6641C21.8685 44.579 19.9562 44 18 44V44M5 53H23M5 58H59" stroke="#B1908E" stroke-linecap="round" stroke-linejoin="round"/>
<ellipse cx="37.8" cy="47.8116" rx="0.799989" ry="0.811586" fill="#B1908E"/>
<ellipse cx="9.79999" cy="45.8116" rx="0.799989" ry="0.811586" fill="#B1908E"/>
</svg>
