<svg width="64" height="64" viewBox="0 0 64 64" fill="none" xmlns="http://www.w3.org/2000/svg">
<ellipse cx="14.6916" cy="20.8589" rx="1.16039" ry="1.17721" fill="#B1908E"/>
<ellipse cx="44.4788" cy="47.0717" rx="1.16039" ry="1.17721" fill="#B1908E"/>
<path d="M24.4459 23.8332C25.0647 23.4759 25.8271 23.4759 26.4459 23.8332L31.6689 26.8487C32.2877 27.206 32.6689 27.8662 32.6689 28.5808V34.6118C32.6689 35.3263 32.2877 35.9866 31.6689 36.3438L26.4459 39.3594C25.8271 39.7166 25.0647 39.7166 24.4459 39.3594L19.2229 36.3438C18.6041 35.9866 18.2229 35.3263 18.2229 34.6118V28.5808C18.2229 27.8662 18.6041 27.206 19.2229 26.8487L24.4459 23.8332Z" stroke="#B1908E" stroke-linecap="round"/>
<path d="M38.7447 23.8332C39.3635 23.4759 40.1259 23.4759 40.7447 23.8332L45.9677 26.8487C46.5865 27.206 46.9677 27.8662 46.9677 28.5808V34.6118C46.9677 35.3263 46.5865 35.9866 45.9677 36.3438L40.7447 39.3594C40.1259 39.7166 39.3635 39.7166 38.7447 39.3594L33.5217 36.3438C32.9029 35.9866 32.5217 35.3263 32.5217 34.6118V28.5808C32.5217 27.8662 32.9029 27.206 33.5217 26.8487L38.7447 23.8332Z" stroke="#B1908E" stroke-linecap="round"/>
<path d="M39.6699 40.5315L45.8929 36.9387C46.5117 36.5814 47.2741 36.5814 47.8929 36.9387L53.116 39.9542C53.7348 40.3115 54.116 40.9717 54.116 41.6862V47.7173C54.116 48.4318 53.7348 49.0921 53.116 49.4493L47.8929 52.4648C47.2741 52.8221 46.5117 52.8221 45.8929 52.4648L40.6699 49.4493C40.0511 49.0921 39.6699 48.4318 39.6699 47.7173V44.7018" stroke="#B1908E" stroke-linecap="round"/>
<path d="M24.4043 23.8513L18.1813 27.4441C17.5625 27.8014 16.8001 27.8014 16.1813 27.4441L10.9583 24.4286C10.3395 24.0714 9.95826 23.4111 9.95826 22.6966V16.6655C9.95826 15.951 10.3395 15.2908 10.9583 14.9335L16.1813 11.918C16.8001 11.5607 17.5625 11.5607 18.1813 11.918L23.4043 14.9335C24.0231 15.2908 24.4043 15.951 24.4043 16.6655V19.6811" stroke="#B1908E" stroke-linecap="round"/>
<path d="M17.1064 11.3404V3M9.95745 14.9149L4 8.95745M9.95745 24.4468L5.19149 29.2128M54.0426 39.9362L57.617 36.3617M54.0426 49.4681L60 55.4255M46.8936 53.0426V61.383" stroke="#B1908E" stroke-linecap="round" stroke-linejoin="round"/>
<path d="M50.4688 42.3184V48.2758" stroke="#B1908E" stroke-linecap="round" stroke-linejoin="round"/>
</svg>
