<svg width="64" height="64" viewBox="0 0 64 64" fill="none" xmlns="http://www.w3.org/2000/svg">
<path d="M4 36L5.40074 35.7199C7.70112 35.2598 9.71629 33.8858 10.9849 31.9124V31.9124C14.3235 26.719 21.8699 26.5899 25.3842 31.6661L25.6838 32.0988C26.5422 33.3388 27.7467 34.2987 29.1469 34.8588L29.2626 34.9051C31.0199 35.6079 32.9801 35.6079 34.7374 34.9051V34.9051C36.2067 34.3173 37.4478 33.2723 38.2772 31.9246L38.3774 31.7618C41.4454 26.7762 48.6676 26.7051 51.8332 31.6294L52.038 31.9481C53.2874 33.8915 55.2998 35.2166 57.5788 35.5965L60 36" stroke="#B1908E" stroke-linecap="round" stroke-linejoin="round"/>
<path d="M32 50V41M32 41L35 44.2143M32 41L29 44.2143" stroke="#B1908E" stroke-linecap="round"/>
<path d="M18 14V23M18 23L21 19.7857M18 23L15 19.7857" stroke="#B1908E" stroke-linecap="round"/>
<path d="M46 14V23M46 23L49 19.7857M46 23L43 19.7857" stroke="#B1908E" stroke-linecap="round"/>
</svg>
