<svg width="64" height="64" viewBox="0 0 64 64" fill="none" xmlns="http://www.w3.org/2000/svg">
<path d="M26.5848 18.8654L29 13L23 24L21.3443 27.3114C20.4492 29.1016 19.6824 30.9529 19.0494 32.8517L18.9361 33.1917C18.313 35.061 17.8373 36.9763 17.5133 38.92L17.0754 41.5476C17.0252 41.8487 17 42.1534 17 42.4586V46C17 47.1046 17.8954 48 19 48C20.1046 48 21 47.1046 21 46V42C21.6627 34.0475 23.5464 26.2444 26.5848 18.8654Z" stroke="#B1908E" stroke-linecap="round" stroke-linejoin="round"/>
<path d="M49.5848 18.8654L52 13L46 24L44.3443 27.3114C43.4492 29.1016 42.6824 30.9529 42.0494 32.8517L41.9361 33.1917C41.313 35.061 40.8373 36.9763 40.5133 38.92L40.0754 41.5476C40.0252 41.8487 40 42.1534 40 42.4586V46C40 47.1046 40.8954 48 42 48C43.1046 48 44 47.1046 44 46V42C44.6627 34.0475 46.5464 26.2444 49.5848 18.8654Z" stroke="#B1908E" stroke-linecap="round" stroke-linejoin="round"/>
<path d="M8 40.0018H14.4914C14.8336 40.0018 15.1111 40.2806 15.1111 40.6229V40.6229C15.1111 40.7394 15.0779 40.8539 15.0155 40.9522L14.5777 41.6416C12.8871 44.3039 13.5906 47.8252 16.1744 49.6335L16.3779 49.776C18.2859 51.1114 20.8252 51.1114 22.7332 49.776V49.776C25.3482 47.9458 25.8805 44.2905 23.896 41.7905L23.2397 40.9636C23.1564 40.8587 23.1111 40.7288 23.1111 40.5949V40.5949C23.1111 40.2673 23.3767 40.0018 23.7042 40.0018H37.597C37.9423 40.0018 38.2222 40.2817 38.2222 40.627V40.627C38.2222 40.7414 38.189 40.8539 38.1259 40.9533L37.3176 42.2262C35.7965 44.6216 36.4643 47.6589 38.8843 49.3528L39.0861 49.494C41.1922 50.968 44.1412 50.968 46.2472 49.494C48.7166 47.7656 49.2308 44.5918 47.4124 42.301L46.3531 40.9666C46.268 40.8593 46.2222 40.7308 46.2222 40.599V40.0018M56 40.0018L46.2222 40" stroke="#B1908E" stroke-linecap="round" stroke-linejoin="round"/>
<path d="M14 15L14.9899 19.0101L19 20L14.9899 20.9899L14 25L13.0101 20.9899L9 20L13.0101 19.0101L14 15Z" fill="#B1908E"/>
<path d="M37 23L37.792 26.208L41 27L37.792 27.792L37 31L36.208 27.792L33 27L36.208 26.208L37 23Z" fill="#B1908E"/>
<circle cx="8.5" cy="13.5" r="1.5" fill="#B1908E"/>
<circle cx="10.5" cy="26.5" r="1.5" fill="#B1908E"/>
<circle cx="41.5" cy="20.5" r="1.5" fill="#B1908E"/>
<circle cx="33.5" cy="34.5" r="1.5" fill="#B1908E"/>
</svg>
