<svg width="64" height="64" viewBox="0 0 64 64" fill="none" xmlns="http://www.w3.org/2000/svg">
<path d="M4 27.7757L10.5159 27.1248C13.2116 26.8555 15.8813 26.3698 18.4991 25.6724V25.6724C26.3282 23.5868 34.544 23.4147 42.4536 25.1705L49.434 26.7202L60 27.7757" stroke="#B1908E" stroke-linecap="round" stroke-linejoin="round"/>
<path d="M40.9805 13L43.9476 17.4461C44.7638 18.6692 45.9643 19.5854 47.3594 20.05V20.05C48.0332 20.2743 48.7388 20.3887 49.449 20.3887H55.7729M55.7729 20.3887L52.6031 23.5553M55.7729 20.3887L52.6031 17.2221" stroke="#B1908E" stroke-linecap="round" stroke-linejoin="round"/>
<path d="M24.0762 13L21.1091 17.4461C20.2929 18.6692 19.0924 19.5854 17.6973 20.05V20.05C17.0235 20.2743 16.3179 20.3887 15.6077 20.3887H9.28372M9.28372 20.3887L12.4535 23.5553M9.28372 20.3887L12.4535 17.2221" stroke="#B1908E" stroke-linecap="round" stroke-linejoin="round"/>
<path d="M4 34.1094H60" stroke="#B1908E" stroke-linecap="round" stroke-linejoin="round"/>
<path d="M4 40.4453H7.16981" stroke="#B1908E" stroke-linecap="round" stroke-linejoin="round"/>
<path d="M56.8301 40.4453H59.9999" stroke="#B1908E" stroke-linecap="round" stroke-linejoin="round"/>
<path d="M13.5078 40.4453H21.9606" stroke="#B1908E" stroke-linecap="round" stroke-linejoin="round"/>
<path d="M7.16992 45.7207H15.6228" stroke="#B1908E" stroke-linecap="round" stroke-linejoin="round"/>
<path d="M21.9609 45.7207H30.4138" stroke="#B1908E" stroke-linecap="round" stroke-linejoin="round"/>
<path d="M36.7539 45.7207H45.2067" stroke="#B1908E" stroke-linecap="round" stroke-linejoin="round"/>
<path d="M50.4922 45.7207H58.945" stroke="#B1908E" stroke-linecap="round" stroke-linejoin="round"/>
<path d="M28.3008 40.4453H36.7536" stroke="#B1908E" stroke-linecap="round" stroke-linejoin="round"/>
<path d="M43.0938 40.4453H51.5466" stroke="#B1908E" stroke-linecap="round" stroke-linejoin="round"/>
<path d="M4 51H7.16981" stroke="#B1908E" stroke-linecap="round" stroke-linejoin="round"/>
<path d="M56.8301 51H59.9999" stroke="#B1908E" stroke-linecap="round" stroke-linejoin="round"/>
<path d="M13.5078 51H21.9606" stroke="#B1908E" stroke-linecap="round" stroke-linejoin="round"/>
<path d="M28.3008 51H36.7536" stroke="#B1908E" stroke-linecap="round" stroke-linejoin="round"/>
<path d="M43.0938 51H51.5466" stroke="#B1908E" stroke-linecap="round" stroke-linejoin="round"/>
</svg>
