<svg width="64" height="64" viewBox="0 0 64 64" fill="none" xmlns="http://www.w3.org/2000/svg">
<path d="M20.8889 16.9231L18.6667 19.1538M18.6667 19.1538L17.547 20.2778C16.3231 21.5065 16.3273 23.4978 17.5513 24.7265V24.7265C18.7772 25.9571 20.7741 25.9614 22 24.7308V24.7308C23.2259 23.5001 25.2185 23.5001 26.4444 24.7308L36.9936 35.3205C37.9166 36.247 39.4168 36.247 40.3397 35.3205V35.3205C41.2577 34.399 41.2577 32.9087 40.3397 31.9872L29.7125 21.3191C28.5199 20.1219 28.5199 18.1858 29.7125 16.9886V16.9886C30.955 15.7413 30.8952 13.7065 29.5815 12.5343L28.7522 11.7943C27.7693 10.9172 26.2723 10.9612 25.3427 11.8945V11.8945C24.4054 12.8353 22.8935 12.8713 21.9125 11.9761L18.6442 8.99344C17.9438 8.35432 17.0299 8 16.0818 8H15.781C14.2122 8 12.845 9.06845 12.4659 10.5907V10.5907C12.1767 11.7519 12.5161 12.9797 13.3606 13.8274L18.6667 19.1538Z" stroke="#B1908E" stroke-linecap="round" stroke-linejoin="round"/>
<path d="M41.4445 40.168C41.1778 39.944 40.8075 39.944 40.5408 40.168C39.1334 41.328 34.9779 45.112 35.0001 49.52C35.0001 53.088 37.689 56 41.0001 56C44.3111 56 47 53.096 47 49.528C47.0074 45.184 42.8445 41.336 41.4445 40.168Z" stroke="#B1908E" stroke-linecap="round"/>
<path d="M28 37L28.9899 41.0101L33 42L28.9899 42.9899L28 47L27.0101 42.9899L23 42L27.0101 41.0101L28 37Z" fill="#B1908E"/>
<path d="M47 20L47.9899 24.0101L52 25L47.9899 25.9899L47 30L46.0101 25.9899L42 25L46.0101 24.0101L47 20Z" fill="#B1908E"/>
</svg>
