<svg width="64" height="64" viewBox="0 0 64 64" fill="none" xmlns="http://www.w3.org/2000/svg">
<path d="M41 22.6356V14L39.4969 15.8037C38.8345 16.5986 38.2663 17.4674 37.8036 18.3929L37.4989 19.0022C37.1678 19.6645 36.9264 20.3679 36.7812 21.0939C36.2872 23.564 36.9375 26.125 38.5502 28.0602L39.1907 28.8289C40.3755 30.2506 41.1604 31.9622 41.4646 33.7877L42 37L43.4091 33.7122C44.3885 31.4268 44.0303 28.7878 42.477 26.8463C41.5209 25.6511 41 24.1661 41 22.6356Z" stroke="#B1908E" stroke-linecap="round" stroke-linejoin="round"/>
<path d="M23.7849 36.7123L21.5 31L25.5545 34.6859C26.5099 35.5545 27.2962 36.5924 27.8737 37.7473L28.0011 38.0022C28.3322 38.6645 28.5736 39.3679 28.7188 40.0939C29.2128 42.564 28.5625 45.125 26.9498 47.0602L26.3093 47.8289C25.1245 49.2506 24.3396 50.9622 24.0354 52.7877L23.5 56L22.2764 53.5528C20.8719 50.7438 21.1045 47.3934 22.8838 44.8054C24.5182 42.428 24.8564 39.391 23.7849 36.7123Z" stroke="#B1908E" stroke-linecap="round" stroke-linejoin="round"/>
<path d="M31.5 52.5L29 57V56.7994C29 53.6328 29.6432 50.4992 30.8906 47.5887L31.4406 46.3053C31.8122 45.4382 32.0784 44.5297 32.2335 43.5991V43.5991C32.7259 40.6444 32.0753 37.6129 30.4137 35.1205L28.9525 32.9287C27.6695 31.0043 26.8667 28.8004 26.6113 26.5017V26.5017C26.2177 22.9591 27.1457 19.396 29.2175 16.4956L30.0739 15.2965C30.6888 14.4357 31.4114 13.6572 32.224 12.98V12.98C33.3979 12.0018 34.3806 10.8148 35.1227 9.47911L36.5 7V7.68991C36.5 10.5243 35.8401 13.3199 34.5725 15.8551L33.9267 17.1465C33.3145 18.3709 32.9416 19.7009 32.8279 21.0651V21.0651C32.6162 23.6055 33.3133 26.1386 34.795 28.2131L36.0467 29.9653C37.0101 31.3142 37.7665 32.7995 38.2907 34.3721L38.644 35.4319C39.2086 37.1257 39.4166 38.9179 39.2549 40.6958V40.6958C39.0869 42.5437 38.5236 44.3338 37.603 45.9447L37 47" stroke="#B1908E" stroke-linecap="round" stroke-linejoin="round"/>
<circle cx="34.5" cy="49.5" r="1.5" fill="#B1908E"/>
</svg>
