<svg width="64" height="64" viewBox="0 0 64 64" fill="none" xmlns="http://www.w3.org/2000/svg">
<path d="M4 30H60" stroke="#B1908E" stroke-linecap="round" stroke-linejoin="round"/>
<path d="M4 53H60" stroke="#B1908E" stroke-linecap="round" stroke-linejoin="round"/>
<path d="M4 48H6" stroke="#B1908E" stroke-linecap="round" stroke-linejoin="round"/>
<path d="M11.7148 48H13.7148" stroke="#B1908E" stroke-linecap="round" stroke-linejoin="round"/>
<path d="M19.4277 48H21.4277" stroke="#B1908E" stroke-linecap="round" stroke-linejoin="round"/>
<path d="M27.1426 48H29.1426" stroke="#B1908E" stroke-linecap="round" stroke-linejoin="round"/>
<path d="M34.8574 48H36.8574" stroke="#B1908E" stroke-linecap="round" stroke-linejoin="round"/>
<path d="M42.5723 48H44.5723" stroke="#B1908E" stroke-linecap="round" stroke-linejoin="round"/>
<path d="M50.2852 48H52.2852" stroke="#B1908E" stroke-linecap="round" stroke-linejoin="round"/>
<path d="M58 48H60" stroke="#B1908E" stroke-linecap="round" stroke-linejoin="round"/>
<path d="M4 45L5.40074 44.7199C7.70112 44.2598 9.71629 42.8858 10.9849 40.9124V40.9124C14.3235 35.719 21.8699 35.5899 25.3842 40.6661L25.6838 41.0988C26.5422 42.3388 27.7467 43.2987 29.1469 43.8588L29.2626 43.9051C31.0199 44.6079 32.9801 44.6079 34.7374 43.9051V43.9051C36.2067 43.3173 37.4478 42.2723 38.2772 40.9246L38.3774 40.7618C41.4454 35.7762 48.6676 35.7051 51.8332 40.6294L52.038 40.9481C53.2874 42.8915 55.2998 44.2166 57.5788 44.5965L60 45" stroke="#B1908E" stroke-linecap="round" stroke-linejoin="round"/>
<path d="M15 21C14.9478 20.9999 14.8963 20.9876 14.8497 20.9639C14.8031 20.9403 14.7627 20.906 14.7318 20.8639C14.7284 20.8597 14.7252 20.8553 14.722 20.8509C13.935 19.8381 12 16.6588 12 15C12 13.343 13.343 12 15 12C16.657 12 18 13.343 18 15C18 16.657 16.0693 19.8299 15.2806 20.8464C15.2805 20.8465 15.2807 20.8469 15.2806 20.847C15.2767 20.8528 15.2725 20.8584 15.2682 20.8639C15.2373 20.906 15.1969 20.9403 15.1503 20.9639C15.1037 20.9876 15.0522 20.9999 15 21Z" fill="#B1908E"/>
<path d="M33 17C32.9478 16.9999 32.8963 16.9876 32.8497 16.9639C32.8031 16.9403 32.7627 16.906 32.7318 16.8639C32.7284 16.8597 32.7252 16.8553 32.722 16.8509C31.935 15.8381 30 12.6588 30 11C30 9.343 31.343 8 33 8C34.657 8 36 9.343 36 11C36 12.657 34.0693 15.8299 33.2806 16.8464C33.2805 16.8465 33.2807 16.8469 33.2806 16.847C33.2767 16.8528 33.2725 16.8584 33.2682 16.8639C33.2373 16.906 33.1969 16.9403 33.1503 16.9639C33.1037 16.9876 33.0522 16.9999 33 17Z" fill="#B1908E"/>
<path d="M49 21C48.9478 20.9999 48.8963 20.9876 48.8497 20.9639C48.8031 20.9403 48.7627 20.906 48.7318 20.8639C48.7284 20.8597 48.7252 20.8553 48.722 20.8509C47.935 19.8381 46 16.6588 46 15C46 13.343 47.343 12 49 12C50.657 12 52 13.343 52 15C52 16.657 50.0693 19.8299 49.2806 20.8464C49.2805 20.8465 49.2807 20.8469 49.2806 20.847C49.2767 20.8528 49.2725 20.8584 49.2682 20.8639C49.2373 20.906 49.1969 20.9403 49.1503 20.9639C49.1037 20.9876 49.0522 20.9999 49 21Z" fill="#B1908E"/>
<path d="M33 28V21M33 21L36 24.2143M33 21L30 24.2143" stroke="#B1908E" stroke-linecap="round"/>
<path d="M49 30V24M49 24L52 27.2143M49 24L46 27.2143" stroke="#B1908E" stroke-linecap="round"/>
<path d="M15 30V24M15 24L18 27.2143M15 24L12 27.2143" stroke="#B1908E" stroke-linecap="round"/>
</svg>
