<svg width="64" height="64" viewBox="0 0 64 64" fill="none" xmlns="http://www.w3.org/2000/svg">
<circle cx="32" cy="32" r="28" stroke="#B1908E" stroke-linecap="round" stroke-linejoin="round"/>
<path d="M38 5L43.9949 12.4936C45.2929 14.1161 46 16.132 46 18.2098V21.3497C46 21.7661 45.8346 22.1654 45.5402 22.4598L44.8704 23.1296C44.4422 23.5578 44.5594 24.2797 45.101 24.5505V24.5505C45.5784 24.7892 45.7385 25.3922 45.4425 25.8363L44 28M34 4.5L30.4554 12.4754C29.0025 15.7443 29.8963 19.5803 32.6444 21.8703L34 23M56 18L49.3754 27.9369C48.4897 29.2655 48.1248 30.8739 48.3507 32.4546V32.4546C48.7398 35.1784 50.8043 37.3609 53.5024 37.9005L59 39M42.5 57.5L37 47M37 47L42 45M37 47L29 41M42 45H49M42 45V45C41.3715 42.4861 41.9807 39.8232 43.6395 37.8325L46 35M29 41V41C30.3937 40.0709 30.3446 38.0068 28.9083 37.145L28.5961 36.9576C27.648 36.3888 27.1833 35.2669 27.4514 34.1943L28.263 30.9478C28.6756 29.2976 30.3115 28.2623 31.9795 28.5959V28.5959C33.2092 28.8418 34.4688 28.3437 35.1976 27.3233L38.623 22.5278C38.8406 22.2232 38.806 21.806 38.5414 21.5414V21.5414C38.2424 21.2424 38.2424 20.7576 38.5414 20.4586L40 19M29 41L25.5 44M22 47L25.5 44M25.5 44L22.5584 40.8322C20.5074 38.6233 17.1568 38.2288 14.6488 39.9008V39.9008C13.5768 40.6155 12.7566 41.6491 12.3042 42.8554L10 49M25 59L26.0759 55.2345C26.6754 53.1359 27.9451 51.2912 29.6911 49.9817L31 49M15 10L17.1026 14.906C17.6692 16.2282 17.5979 17.7372 16.9091 19V19M4.5 37L10.6448 34.4127C12.5075 33.6284 13.3986 31.4964 12.648 29.6199V29.6199C12.2376 28.594 12.3063 27.4384 12.8354 26.4683L16.9091 19M16.9091 19L24 26" stroke="#B1908E" stroke-linecap="round" stroke-linejoin="round"/>
</svg>
