<svg width="64" height="64" viewBox="0 0 64 64" fill="none" xmlns="http://www.w3.org/2000/svg">
<path d="M4 20L8.0407 23.3191C13.6459 27.9234 21.5432 28.499 27.7567 24.7561V24.7561C28.9579 24.0325 30.0656 23.1643 31.0551 22.1708L31.2845 21.9405C38.5624 14.6338 50.234 14.1481 58.0937 20.825L60 22.4444" stroke="#B1908E" stroke-linecap="round" stroke-linejoin="round"/>
<path d="M4 32L8.0407 35.3191C13.6459 39.9234 21.5432 40.499 27.7567 36.7561V36.7561C28.9579 36.0325 30.0656 35.1643 31.0551 34.1708L31.2845 33.9405C38.5624 26.6338 50.234 26.1481 58.0937 32.825L60 34.4444" stroke="#B1908E" stroke-linecap="round" stroke-linejoin="round"/>
<path d="M4 44L8.0407 47.3191C13.6459 51.9234 21.5432 52.499 27.7567 48.7561V48.7561C28.9579 48.0325 30.0656 47.1643 31.0551 46.1708L31.2845 45.9405C38.5624 38.6338 50.234 38.1481 58.0937 44.825L60 46.4444" stroke="#B1908E" stroke-linecap="round" stroke-linejoin="round"/>
</svg>
