<svg width="64" height="64" viewBox="0 0 64 64" fill="none" xmlns="http://www.w3.org/2000/svg">
<path d="M56 59H8M50.6667 59V29M13.3333 59V29" stroke="#B1908E" stroke-linecap="round"/>
<path d="M44.0762 5.33398H19.9268C16.7188 5.33398 15.1162 5.33398 13.8282 6.13132C12.5375 6.92598 11.8202 8.36065 10.3882 11.23L6.64149 20.694C5.77749 22.8807 5.02015 25.4567 6.47615 27.3047C7.16207 28.1767 8.10287 28.8131 9.16754 29.1253C10.2322 29.4375 11.3677 29.4099 12.4159 29.0463C13.4642 28.6827 14.3729 28.0012 15.0156 27.0968C15.6583 26.1924 16.0029 25.1101 16.0015 24.0007C16.0015 25.4151 16.5634 26.7717 17.5636 27.7719C18.5638 28.7721 19.9203 29.334 21.3348 29.334C22.7493 29.334 24.1059 28.7721 25.1061 27.7719C26.1062 26.7717 26.6682 25.4151 26.6682 24.0007C26.6682 25.4151 27.2301 26.7717 28.2303 27.7719C29.2304 28.7721 30.587 29.334 32.0015 29.334C33.416 29.334 34.7725 28.7721 35.7727 27.7719C36.7729 26.7717 37.3348 25.4151 37.3348 24.0007C37.3348 25.4151 37.8967 26.7717 38.8969 27.7719C39.8971 28.7721 41.2537 29.334 42.6682 29.334C44.0826 29.334 45.4392 28.7721 46.4394 27.7719C47.4396 26.7717 48.0015 25.4151 48.0015 24.0007C48.0013 25.1093 48.3466 26.1904 48.9894 27.0936C49.6322 27.9969 50.5404 28.6774 51.5879 29.0405C52.6353 29.4036 53.7699 29.4313 54.8338 29.1197C55.8977 28.8082 56.8381 28.1728 57.5242 27.302C58.9802 25.454 58.2228 22.878 57.3588 20.6913L53.6148 11.23C52.1828 8.36065 51.4655 6.92598 50.1748 6.13132C48.8868 5.33398 47.2842 5.33398 44.0762 5.33398Z" stroke="#B1908E" stroke-linejoin="round"/>
<line x1="25.5" y1="59" x2="25.5" y2="34" stroke="#B1908E"/>
<line x1="26" y1="34.5" x2="38" y2="34.5" stroke="#B1908E"/>
<line x1="38.5" y1="34" x2="38.5" y2="59" stroke="#B1908E"/>
</svg>
