<svg width="64" height="64" viewBox="0 0 64 64" fill="none" xmlns="http://www.w3.org/2000/svg">
<path fill-rule="evenodd" clip-rule="evenodd" d="M52.4375 55.5625C52.4375 56.4563 51.7063 57.1875 50.8125 57.1875H13.4375C12.5437 57.1875 11.8125 56.4563 11.8125 55.5625V8.4375C11.8125 7.54375 12.5437 6.8125 13.4375 6.8125H50.8125C51.7063 6.8125 52.4375 7.54375 52.4375 8.4375V55.5625Z" stroke="#B1908E"/>
<path fill-rule="evenodd" clip-rule="evenodd" d="M48.375 21.4375C48.375 22.3313 47.6438 23.0625 46.75 23.0625H17.5C16.6062 23.0625 15.875 22.3313 15.875 21.4375V12.5C15.875 11.6062 16.6062 10.875 17.5 10.875H46.75C47.6438 10.875 48.375 11.6062 48.375 12.5V21.4375Z" stroke="#B1908E"/>
<path fill-rule="evenodd" clip-rule="evenodd" d="M48.375 36.875C48.375 37.7688 47.6438 38.5 46.75 38.5H17.5C16.6062 38.5 15.875 37.7688 15.875 36.875V27.9375C15.875 27.0437 16.6062 26.3125 17.5 26.3125H46.75C47.6438 26.3125 48.375 27.0437 48.375 27.9375V36.875Z" stroke="#B1908E"/>
<path fill-rule="evenodd" clip-rule="evenodd" d="M48.375 52.3125C48.375 53.2063 47.6438 53.9375 46.75 53.9375H17.5C16.6062 53.9375 15.875 53.2063 15.875 52.3125V43.375C15.875 42.4812 16.6062 41.75 17.5 41.75H46.75C47.6438 41.75 48.375 42.4812 48.375 43.375V52.3125Z" stroke="#B1908E"/>
<path d="M28.0625 46.625V45H36.1875V46.625" stroke="#B1908E"/>
<path d="M28.0625 31.1875V29.5625H36.1875V31.1875" stroke="#B1908E"/>
<path d="M28.0625 15.75V14.125H36.1875V15.75" stroke="#B1908E"/>
</svg>
