<svg width="65" height="64" viewBox="0 0 65 64" fill="none" xmlns="http://www.w3.org/2000/svg">
<circle cx="7.21342" cy="20.9087" r="2.54545" stroke="#B1908E" stroke-linecap="round"/>
<circle cx="7.21342" cy="46.3638" r="2.54545" stroke="#B1908E" stroke-linecap="round"/>
<circle cx="31.3951" cy="18.3638" r="2.54545" stroke="#B1908E" stroke-linecap="round"/>
<circle cx="45.3956" cy="24.7276" r="5.09091" stroke="#B1908E" stroke-linecap="round"/>
<circle cx="19.9405" cy="29.8175" r="5.09091" stroke="#B1908E" stroke-linecap="round"/>
<circle cx="58.168" cy="14.5" r="2.5" stroke="#B1908E" stroke-linecap="round"/>
<circle cx="45.168" cy="49.5" r="2.5" stroke="#B1908E" stroke-linecap="round"/>
<circle cx="31.3944" cy="42.5447" r="3.81818" stroke="#B1908E" stroke-linecap="round"/>
<path d="M9.12305 22.8184L15.4867 26.6365M24.3958 33.0002L29.4867 39.3638M16.7594 34.2729L9.12305 43.8184M35.214 44.4547L42.8503 47.6365M33.9412 39.3638L41.5776 28.5456M33.9412 19.6365L40.3049 22.182M49.214 20.9093L55.668 16M47.3049 29.8184L49.214 33.6365" stroke="#B1908E" stroke-linecap="round" stroke-linejoin="round"/>
<circle cx="49.8505" cy="35.5458" r="1.90909" stroke="#B1908E" stroke-linecap="round"/>
</svg>
