<svg width="64" height="64" viewBox="0 0 64 64" fill="none" xmlns="http://www.w3.org/2000/svg">
<path d="M7.5 38V38C9.8017 38 12.0718 38.5359 14.1305 39.5652L25.3122 45.1561C27.7634 46.3817 30.3413 47.3353 33 48V48M33 48L52.5787 36.9338C53.8123 36.2365 53.562 34.3905 52.1873 34.0468V34.0468C52.0629 34.0157 51.9352 34 51.8069 34H50.4142C49.5087 34 48.6403 34.3597 48 35V35M33 48L49.801 52.4213C50.9125 52.7138 52 51.8754 52 50.7261V50.7261C52 50.2612 51.8153 49.8153 51.4866 49.4866L50.726 48.726C50.2486 48.2486 49.6665 47.8888 49.0259 47.6753L47 47M50 41L52.0379 40.3207C52.6405 40.1198 53.3032 40.2274 53.8113 40.6085V40.6085C55.1038 41.5779 54.7098 43.6107 53.1487 44.027L42 47M31 42L36.4649 40.4386C37.475 40.15 38.4059 39.6347 39.1867 38.9319L46.199 32.6209C47.0028 31.8975 46.7273 30.5758 45.7013 30.2338V30.2338C45.2621 30.0874 44.779 30.1658 44.4086 30.4435L38.6235 34.7824C37.5547 35.5839 36.32 36.136 35.0101 36.398V36.398C33.0592 36.7882 31.0339 36.5169 29.2544 35.6272L27.2789 34.6394C26.4281 34.2141 25.5398 33.8685 24.6252 33.6072L19 32M21 28L24.1493 28.7873C27.2871 29.5718 30.0593 31.4125 32 34V34M7 30V30C8.96989 28.6867 11.2319 27.8768 13.5877 27.6412L15 27.5" stroke="#B1908E" stroke-linecap="round" stroke-linejoin="round"/>
<circle cx="18" cy="27" r="1" fill="#B1908E"/>
<path d="M37.8695 24.7918C36.7412 25.5946 35.2588 25.5946 34.1305 24.7918C31.7663 23.1098 28 19.8478 28 16.1364C28.0002 15.1803 28.3333 14.2539 28.9428 13.5145C29.5523 12.7751 30.4006 12.2684 31.3434 12.0806C32.2861 11.8928 33.2652 12.0355 34.1141 12.4843C34.9631 12.9332 35.6295 13.6605 36 14.5427C36 14.5427 36 14.5427 36 14.5427V14.5427C36 14.5427 36 14.5427 36 14.5427C36.3705 13.6605 37.0369 12.9332 37.8859 12.4843C38.7348 12.0355 39.7139 11.8928 40.6566 12.0806C41.5994 12.2684 42.4476 12.7751 43.0572 13.5145C43.6667 14.2539 43.9998 15.1803 44 16.1364C44 19.8478 40.2337 23.1098 37.8695 24.7918Z" stroke="#B1908E" stroke-linecap="round"/>
</svg>
