<svg width="20" height="20" viewBox="0 0 20 20" fill="none" xmlns="http://www.w3.org/2000/svg">
<path d="M10 2.5C6.06934 2.5 3.74023 4.5166 2.56836 7.13867C1.40137 9.76562 1.25 12.959 1.25 15.625C1.25 15.9717 1.52832 16.25 1.875 16.25H7.31445C8.13477 17.0459 9.07715 17.5 10 17.5C10.8838 17.5 11.8945 17.085 12.7832 16.25H18.125C18.4717 16.25 18.75 15.9717 18.75 15.625C18.75 12.959 18.5986 9.76562 17.4268 7.13867C16.2598 4.5166 13.9307 2.5 10 2.5ZM10 3.75C13.5254 3.75 15.2588 5.3418 16.2891 7.65137C17.2363 9.78516 17.4365 12.5293 17.4658 15H13.7793C14.502 13.8086 15 12.1777 15 10V7.5H11.25C9.17969 7.5 8.24707 7.05078 7.84668 6.70898C7.64649 6.54297 7.56836 6.39649 7.5293 6.30371C7.49023 6.21094 7.5 6.23047 7.5 6.23047L6.25 6.26953C6.25 6.26953 6.26465 6.52344 6.37207 6.78223C6.47949 7.04102 6.68457 7.36328 7.04102 7.66602C7.74414 8.26172 8.99902 8.75 11.25 8.75H13.75V10C13.75 10.3809 13.7061 10.7031 13.6768 11.04C13.5449 10.6836 13.1934 10 12.5 10H11.25C11.25 10 11.1865 11.25 12.5 11.25H13.667C13.2617 15.0781 11.1035 16.25 10 16.25C9.36035 16.25 8.39844 15.7715 7.62695 14.7266C7.01172 13.9014 6.52344 12.7295 6.33789 11.25H7.5C8.81348 11.25 8.75 10 8.75 10H7.5C6.80664 10 6.45996 10.6787 6.32324 11.0352C6.28906 10.6982 6.25 10.3662 6.25 10H5C5 12.0752 5.54687 13.7451 6.33301 15H2.53418C2.56348 12.5293 2.76367 9.78516 3.71094 7.65137C4.74121 5.3418 6.47461 3.75 10 3.75ZM10 13.75C9.0625 13.75 8.75 15 8.75 15H11.25C11.25 15 10.9375 13.75 10 13.75Z" fill="#B1908E"/>
</svg>
