<svg width="20" height="20" viewBox="0 0 20 20" fill="none" xmlns="http://www.w3.org/2000/svg">
<path d="M10 1.25C5.17578 1.25 1.25 5.17578 1.25 10C1.25 14.8242 5.17578 18.75 10 18.75C14.8242 18.75 18.75 14.8242 18.75 10C18.75 5.17578 14.8242 1.25 10 1.25ZM10 2.5C14.1504 2.5 17.5 5.84961 17.5 10C17.5 14.1504 14.1504 17.5 10 17.5C5.84961 17.5 2.5 14.1504 2.5 10C2.5 5.84961 5.84961 2.5 10 2.5ZM10.3711 6.25C9.72656 6.25 9.12598 6.43066 8.59375 6.71875L9.53125 7.65625C9.79492 7.56348 10.0781 7.5 10.3711 7.5C11.2939 7.5 12.0898 8.00781 12.5195 8.75H10.625L13.125 11.25L15.625 8.75H13.8916C13.374 7.29981 12.002 6.25 10.3711 6.25ZM6.875 8.75L4.375 11.25H6.1084C6.62598 12.7002 7.99805 13.75 9.62891 13.75C10.2734 13.75 10.874 13.5693 11.4062 13.2812L10.4688 12.3438C10.2051 12.4365 9.92188 12.5 9.62891 12.5C8.70606 12.5 7.91016 11.9922 7.48047 11.25H9.375L6.875 8.75Z" fill="#B1908E"/>
</svg>
