<svg width="20" height="20" viewBox="0 0 20 20" fill="none" xmlns="http://www.w3.org/2000/svg">
<path d="M9.375 1.25C4.89258 1.25 1.25 4.89258 1.25 9.375C1.25 13.8574 4.89258 17.5 9.375 17.5C13.8574 17.5 17.5 13.8574 17.5 9.375V8.75H16.25V9.375C16.25 13.1787 13.1787 16.25 9.375 16.25C5.57129 16.25 2.5 13.1787 2.5 9.375C2.5 5.57129 5.57129 2.5 9.375 2.5C11.4258 2.5 13.2471 3.40332 14.5068 4.82422L13.0811 6.25H17.5V1.83105L15.3906 3.94043C13.9014 2.29492 11.7627 1.25 9.375 1.25Z" fill="#B1908E"/>
</svg>
