<svg width="20" height="20" viewBox="0 0 20 20" fill="none" xmlns="http://www.w3.org/2000/svg">
<path d="M10 2.5C6.06934 2.5 3.74023 4.5166 2.56836 7.13867C1.40137 9.76562 1.25 12.959 1.25 15.625C1.25 15.9717 1.52832 16.25 1.875 16.25H6.875C7.12891 16.25 7.3584 16.0938 7.45606 15.8594C7.54883 15.6201 7.49023 15.3516 7.30469 15.1758C7.30469 15.1758 7.29492 15.1709 7.20703 15.0293C7.11426 14.8877 6.97754 14.6436 6.83594 14.2578C6.55273 13.4863 6.25 12.1533 6.25 10H5C5 12.2705 5.32227 13.7549 5.66406 14.6875C5.71777 14.8291 5.76172 14.8828 5.81543 15H2.53418C2.56348 12.5293 2.76367 9.78516 3.71094 7.65137C4.74121 5.3418 6.47461 3.75 10 3.75C13.5254 3.75 15.2588 5.3418 16.2891 7.65137C17.2363 9.78516 17.4365 12.5293 17.4658 15H14.1846C14.2383 14.8828 14.2822 14.8291 14.3359 14.6875C14.6777 13.7549 15 12.2705 15 10V8.125C15 7.77832 14.7217 7.5 14.375 7.5H11.25C9.17969 7.5 8.24707 7.05078 7.84668 6.70898C7.64649 6.54297 7.56836 6.39649 7.5293 6.30371C7.49023 6.21094 7.5 6.23047 7.5 6.23047L6.25 6.26953C6.25 6.26953 6.26465 6.52344 6.37207 6.78223C6.47949 7.04102 6.68457 7.36328 7.04102 7.66602C7.74414 8.26172 8.99902 8.75 11.25 8.75H13.75V10C13.75 12.1533 13.4473 13.4863 13.1641 14.2578C13.0225 14.6436 12.8857 14.8877 12.793 15.0293C12.7051 15.1709 12.6953 15.1758 12.6953 15.1758C12.5098 15.3516 12.4512 15.6201 12.5439 15.8594C12.6416 16.0938 12.8711 16.25 13.125 16.25H18.125C18.4717 16.25 18.75 15.9717 18.75 15.625C18.75 12.959 18.5986 9.76562 17.4268 7.13867C16.2598 4.5166 13.9307 2.5 10 2.5Z" fill="#B1908E"/>
</svg>
